<svg width="875" height="449" viewBox="0 0 875 449" fill="none" xmlns="http://www.w3.org/2000/svg">
<path fill-rule="evenodd" clip-rule="evenodd" d="M0 36.0004C0 16.1181 16.1178 0.000385266 36 0.000374656L719.743 9.78751e-06C731.266 3.63853e-06 742.093 5.51592 748.866 14.8376L833.123 130.789C837.593 136.94 840 144.348 840 151.951V377C840 396.882 823.882 413 804 413L99.591 413C88.1168 413 77.3299 407.53 70.5493 398.274L6.95835 311.464C2.4373 305.293 0 297.841 0 290.19V36.0004Z" fill="url(#paint0_linear_1_3774)"/>
<g clip-path="url(#clip0_1_3774)">
<path d="M70 31.3633H771.858C782.839 31.3633 793.164 36.5905 799.664 45.4404L865.806 135.493C870.155 141.414 872.5 148.569 872.5 155.916V412.863C872.5 431.917 857.054 447.363 838 447.363H157.533C146.568 447.363 136.256 442.151 129.754 433.321L42.2207 314.461C37.8553 308.533 35.5 301.365 35.5 294.003V65.8633C35.5002 46.8096 50.9463 31.3633 70 31.3633Z" stroke="#3D3D3D" stroke-width="3"/>
</g>
<g clip-path="url(#clip1_1_3774)">
<path d="M70 31.3633H771.858C782.839 31.3633 793.164 36.5905 799.664 45.4404L865.806 135.493C870.155 141.414 872.5 148.569 872.5 155.916V412.863C872.5 431.917 857.054 447.363 838 447.363H157.533C146.568 447.363 136.256 442.151 129.754 433.321L42.2207 314.461C37.8553 308.533 35.5 301.365 35.5 294.003V65.8633C35.5002 46.8096 50.9463 31.3633 70 31.3633Z" stroke="#3D3D3D" stroke-width="3"/>
</g>
<g clip-path="url(#clip2_1_3774)">
<path d="M70 31.3633H771.858C782.839 31.3633 793.164 36.5905 799.664 45.4404L865.806 135.493C870.155 141.414 872.5 148.569 872.5 155.916V412.863C872.5 431.917 857.054 447.363 838 447.363H157.533C146.568 447.363 136.256 442.151 129.754 433.321L42.2207 314.461C37.8553 308.533 35.5 301.365 35.5 294.003V65.8633C35.5002 46.8096 50.9463 31.3633 70 31.3633Z" stroke="white" stroke-width="3"/>
</g>
<defs>
<linearGradient id="paint0_linear_1_3774" x1="420" y1="0" x2="420" y2="413" gradientUnits="userSpaceOnUse">
<stop stop-color="#07B174"/>
<stop offset="1" stop-color="#109162"/>
</linearGradient>
<clipPath id="clip0_1_3774">
<rect width="111" height="425" fill="white" transform="translate(763.145 23.5)"/>
</clipPath>
<clipPath id="clip1_1_3774">
<rect width="840" height="35" fill="white" transform="translate(34.1445 413.5)"/>
</clipPath>
<clipPath id="clip2_1_3774">
<rect width="806" height="384" fill="white" transform="translate(34.1445 29.5)"/>
</clipPath>
</defs>
</svg>
