<svg xmlns="http://www.w3.org/2000/svg" width="832" height="507" viewBox="0 0 832 507" fill="none"><path d="M0 0H832V341.513L692.172 507H0V0Z" fill="url(#paint0_linear_1623_1960)"></path><g style="mix-blend-mode:soft-light" opacity="0.6"><path fill-rule="evenodd" clip-rule="evenodd" d="M382.581 507C359.997 471.783 351.387 417.858 396.779 357.037C425.56 318.474 468.158 283.961 511.929 248.498C589.721 185.471 671.216 119.444 685.424 22.35C686.551 14.6491 687.529 7.20082 688.373 0L621.467 0C590.576 52.9672 547.63 103.365 490.035 133.913C330.17 218.7 241.357 294.562 250.238 357.037C258.564 415.608 36.6118 250.614 8.83959 181.962C7.02009 169.601 6.36645 162.364 6.13164 162.378C6 162.386 6 164.672 6 169.612C6 173.238 6.98843 177.386 8.83959 181.962C17.9785 244.044 56.5296 435.381 219.152 486.45L294.134 507H382.581Z" fill="#18231F"></path></g><defs><linearGradient id="paint0_linear_1623_1960" x1="-0.28587" y1="-0.292215" x2="774.544" y2="329.018" gradientUnits="userSpaceOnUse"><stop stop-color="#4CBD30"></stop><stop offset="1" stop-color="#11593F"></stop></linearGradient></defs></svg>