<svg xmlns="http://www.w3.org/2000/svg" width="38" height="38" viewBox="0 0 38 38" fill="none"><circle cx="18.5991" cy="18.6121" r="18.5845" fill="#09AF73"></circle><path d="M19.2791 26.6121C18.9725 26.6121 18.7191 26.5187 18.5191 26.3321C18.3191 26.1321 18.2191 25.8854 18.2191 25.5921V14.8721L18.4791 15.2321L16.6191 16.5321C16.4591 16.6654 16.2658 16.7321 16.0391 16.7321C15.7725 16.7321 15.5325 16.6321 15.3191 16.4321C15.1191 16.2187 15.0191 15.9721 15.0191 15.6921C15.0191 15.3454 15.1925 15.0587 15.5391 14.8321L18.5791 12.8121C18.6991 12.7321 18.8258 12.6787 18.9591 12.6521C19.1058 12.6254 19.2391 12.6121 19.3591 12.6121C19.6658 12.6121 19.9125 12.7121 20.0991 12.9121C20.2858 13.0987 20.3791 13.3387 20.3791 13.6321V25.5921C20.3791 25.8854 20.2725 26.1321 20.0591 26.3321C19.8591 26.5187 19.5991 26.6121 19.2791 26.6121Z" fill="white"></path></svg>