<svg xmlns="http://www.w3.org/2000/svg" width="38" height="38" viewBox="0 0 38 38" fill="none"><circle cx="18.5991" cy="19.2803" r="18.5845" fill="#09AF73"></circle><path d="M12.9591 27.2803C12.3391 27.2803 11.8991 26.8403 11.8991 26.2603V16.0603L10.2391 17.0403C10.0591 17.1403 9.87912 17.2003 9.71912 17.2003C9.11912 17.2003 8.69912 16.6603 8.69912 16.1603C8.69912 15.8203 8.89912 15.5003 9.21912 15.3003L12.3591 13.4203C12.5591 13.3203 12.8191 13.2803 13.0991 13.2803C13.6391 13.2803 14.0591 13.7203 14.0591 14.3003V26.2603C14.0591 26.8403 13.5791 27.2803 12.9591 27.2803ZM21.7494 27.4803C18.3694 27.4803 16.5694 24.4603 16.5694 20.2803C16.5694 16.0803 18.3694 13.0803 21.7494 13.0803C25.1294 13.0803 26.9294 16.0803 26.9294 20.2803C26.9294 24.4603 25.1294 27.4803 21.7494 27.4803ZM21.7494 25.4603C23.6294 25.4603 24.7694 23.6203 24.7694 20.2803C24.7694 16.9403 23.6294 15.0803 21.7494 15.0803C19.8694 15.0803 18.7294 16.9403 18.7294 20.2803C18.7294 23.6203 19.8694 25.4603 21.7494 25.4603Z" fill="white"></path></svg>