<svg xmlns="http://www.w3.org/2000/svg" width="38" height="38" viewBox="0 0 38 38" fill="none"><circle cx="18.8794" cy="18.6121" r="18.5845" fill="#09AF73"></circle><path d="M22.1394 24.7521C22.4061 24.7521 22.6261 24.8454 22.7994 25.0321C22.9861 25.2054 23.0794 25.4254 23.0794 25.6921C23.0794 25.9587 22.9861 26.1787 22.7994 26.3521C22.6261 26.5254 22.4061 26.6121 22.1394 26.6121H15.1194C14.8261 26.6121 14.5927 26.5254 14.4194 26.3521C14.2461 26.1787 14.1594 25.9454 14.1594 25.6521C14.1594 25.3854 14.2527 25.1454 14.4394 24.9321L18.8994 20.1121C19.4727 19.4987 19.9127 18.8921 20.2194 18.2921C20.5394 17.6921 20.6994 17.1654 20.6994 16.7121C20.6994 15.9787 20.4794 15.3854 20.0394 14.9321C19.5994 14.4787 19.0194 14.2521 18.2994 14.2521C17.9927 14.2521 17.6794 14.3254 17.3594 14.4721C17.0527 14.6054 16.7594 14.7921 16.4794 15.0321C16.2127 15.2587 15.9794 15.5254 15.7794 15.8321C15.6461 16.0187 15.5127 16.1387 15.3794 16.1921C15.2461 16.2454 15.1194 16.2721 14.9994 16.2721C14.7461 16.2721 14.5127 16.1854 14.2994 16.0121C14.0994 15.8254 13.9994 15.6121 13.9994 15.3721C13.9994 15.1854 14.0594 15.0054 14.1794 14.8321C14.2994 14.6587 14.4527 14.4787 14.6394 14.2921C14.9327 13.9321 15.2861 13.6121 15.6994 13.3321C16.1261 13.0387 16.5727 12.8121 17.0394 12.6521C17.5061 12.4921 17.9661 12.4121 18.4194 12.4121C19.2994 12.4121 20.0594 12.5854 20.6994 12.9321C21.3527 13.2787 21.8527 13.7654 22.1994 14.3921C22.5594 15.0187 22.7394 15.7587 22.7394 16.6121C22.7394 17.3321 22.5194 18.1321 22.0794 19.0121C21.6527 19.8787 21.0527 20.7321 20.2794 21.5721L17.1794 24.9521L16.9594 24.7521H22.1394Z" fill="white"></path></svg>