<svg xmlns="http://www.w3.org/2000/svg" width="38" height="38" viewBox="0 0 38 38" fill="none"><circle cx="19.1606" cy="18.6121" r="18.5845" fill="#09AF73"></circle><path d="M15.7406 24.0521C15.8473 24.0521 15.9606 24.0721 16.0806 24.1121C16.2006 24.1387 16.334 24.2054 16.4806 24.3121C16.7206 24.5254 17.0073 24.7054 17.3406 24.8521C17.6873 24.9854 18.0806 25.0521 18.5206 25.0521C19.014 25.0521 19.474 24.9387 19.9006 24.7121C20.3273 24.4721 20.674 24.1387 20.9406 23.7121C21.2073 23.2854 21.3406 22.7787 21.3406 22.1921C21.3406 21.5921 21.214 21.1054 20.9606 20.7321C20.7073 20.3454 20.3806 20.0587 19.9806 19.8721C19.5806 19.6721 19.1606 19.5721 18.7206 19.5721C18.4673 19.5721 18.254 19.5987 18.0806 19.6521C17.9073 19.6921 17.7406 19.7387 17.5806 19.7921C17.4206 19.8321 17.2473 19.8521 17.0606 19.8521C16.8073 19.8521 16.6073 19.7654 16.4606 19.5921C16.314 19.4054 16.2406 19.1854 16.2406 18.9321C16.2406 18.7721 16.274 18.6321 16.3406 18.5121C16.4073 18.3921 16.5006 18.2587 16.6206 18.1121L20.3206 14.1521L20.7606 14.5521H15.4606C15.194 14.5521 14.9673 14.4654 14.7806 14.2921C14.6073 14.1054 14.5206 13.8787 14.5206 13.6121C14.5206 13.3587 14.6073 13.1454 14.7806 12.9721C14.9673 12.7987 15.194 12.7121 15.4606 12.7121H21.7806C22.1273 12.7121 22.3806 12.8121 22.5406 13.0121C22.714 13.2121 22.8006 13.4454 22.8006 13.7121C22.8006 13.8587 22.7606 13.9987 22.6806 14.1321C22.614 14.2654 22.5273 14.3921 22.4206 14.5121L18.7006 18.5121L18.2006 17.9721C18.3073 17.9187 18.4873 17.8654 18.7406 17.8121C18.994 17.7587 19.2006 17.7321 19.3606 17.7321C20.1206 17.7321 20.8006 17.9254 21.4006 18.3121C22.014 18.6987 22.4873 19.2187 22.8206 19.8721C23.1673 20.5121 23.3406 21.2387 23.3406 22.0521C23.3406 23.0254 23.1206 23.8721 22.6806 24.5921C22.2406 25.2987 21.6273 25.8454 20.8406 26.2321C20.0673 26.6187 19.174 26.8121 18.1606 26.8121C17.654 26.8121 17.1473 26.7454 16.6406 26.6121C16.1473 26.4654 15.7206 26.2587 15.3606 25.9921C15.134 25.8587 14.9806 25.7187 14.9006 25.5721C14.8206 25.4121 14.7806 25.2587 14.7806 25.1121C14.7806 24.8587 14.8673 24.6187 15.0406 24.3921C15.2273 24.1654 15.4606 24.0521 15.7406 24.0521Z" fill="white"></path></svg>