<svg xmlns="http://www.w3.org/2000/svg" width="38" height="38" viewBox="0 0 38 38" fill="none"><circle cx="18.8159" cy="18.6121" r="18.5845" fill="#09AF73"></circle><path d="M20.4559 26.6121C20.1759 26.6121 19.9426 26.5187 19.7559 26.3321C19.5693 26.1321 19.4759 25.8854 19.4759 25.5921V15.4121L19.8359 15.5321L15.5159 21.0521L15.4159 20.7921H22.6959C22.9626 20.7921 23.1826 20.8854 23.3559 21.0721C23.5426 21.2454 23.6359 21.4654 23.6359 21.7321C23.6359 21.9854 23.5426 22.1987 23.3559 22.3721C23.1826 22.5454 22.9626 22.6321 22.6959 22.6321H14.0359C13.7959 22.6321 13.5693 22.5387 13.3559 22.3521C13.1426 22.1521 13.0359 21.9187 13.0359 21.6521C13.0359 21.3987 13.1226 21.1721 13.2959 20.9721L19.6559 13.0121C19.7493 12.8787 19.8693 12.7787 20.0159 12.7121C20.1626 12.6454 20.3159 12.6121 20.4759 12.6121C20.7693 12.6121 21.0093 12.7121 21.1959 12.9121C21.3826 13.0987 21.4759 13.3387 21.4759 13.6321V25.5921C21.4759 25.8854 21.3759 26.1321 21.1759 26.3321C20.9759 26.5187 20.7359 26.6121 20.4559 26.6121Z" fill="white"></path></svg>