<svg xmlns="http://www.w3.org/2000/svg" width="38" height="38" viewBox="0 0 38 38" fill="none"><circle cx="18.7222" cy="18.6121" r="18.5845" fill="#09AF73"></circle><path d="M17.5022 26.7521C16.9822 26.7521 16.4422 26.6721 15.8822 26.5121C15.3355 26.3521 14.8688 26.1121 14.4822 25.7921C14.3355 25.6721 14.2222 25.5187 14.1422 25.3321C14.0622 25.1454 14.0222 24.9654 14.0222 24.7921C14.0222 24.6054 14.1022 24.4254 14.2622 24.2521C14.4355 24.0654 14.6688 23.9721 14.9622 23.9721C15.1755 23.9721 15.4222 24.0787 15.7022 24.2921C15.9688 24.4654 16.2488 24.6121 16.5422 24.7321C16.8488 24.8521 17.1622 24.9121 17.4822 24.9121C18.1755 24.9121 18.7755 24.7854 19.2822 24.5321C19.7888 24.2787 20.1755 23.9254 20.4422 23.4721C20.7222 23.0054 20.8622 22.4654 20.8622 21.8521C20.8622 21.2787 20.7355 20.7921 20.4822 20.3921C20.2288 19.9787 19.8822 19.6587 19.4422 19.4321C19.0155 19.2054 18.5355 19.0921 18.0022 19.0921C17.5622 19.0921 17.1755 19.1654 16.8422 19.3121C16.5088 19.4454 16.2088 19.5854 15.9422 19.7321C15.6755 19.8654 15.4288 19.9321 15.2022 19.9321C14.8555 19.9321 14.5955 19.8587 14.4222 19.7121C14.2488 19.5521 14.1355 19.3654 14.0822 19.1521C14.0422 18.9254 14.0355 18.7187 14.0622 18.5321L14.7622 13.5121C14.8022 13.2854 14.9088 13.0987 15.0822 12.9521C15.2688 12.7921 15.4955 12.7121 15.7622 12.7121H21.6222C21.8888 12.7121 22.1088 12.8054 22.2822 12.9921C22.4688 13.1654 22.5622 13.3854 22.5622 13.6521C22.5622 13.9187 22.4688 14.1387 22.2822 14.3121C22.1088 14.4854 21.8888 14.5721 21.6222 14.5721H16.2622L16.4822 14.3921L15.8422 18.6921L15.5422 18.0921C15.6622 17.9587 15.8622 17.8321 16.1422 17.7121C16.4355 17.5787 16.7622 17.4721 17.1222 17.3921C17.4955 17.2987 17.8688 17.2521 18.2422 17.2521C19.1222 17.2521 19.9088 17.4521 20.6022 17.8521C21.3088 18.2387 21.8622 18.7787 22.2622 19.4721C22.6622 20.1654 22.8622 20.9521 22.8622 21.8321C22.8622 22.8187 22.6422 23.6854 22.2022 24.4321C21.7622 25.1654 21.1422 25.7387 20.3422 26.1521C19.5422 26.5521 18.5955 26.7521 17.5022 26.7521Z" fill="white"></path></svg>