<svg xmlns="http://www.w3.org/2000/svg" width="38" height="38" viewBox="0 0 38 38" fill="none"><circle cx="18.7222" cy="19.2803" r="18.5845" transform="rotate(-180 18.7222 19.2803)" fill="#09AF73"></circle><path d="M18.7822 27.4803C15.8222 27.4803 14.1222 24.8803 14.1222 22.1803C14.1222 19.5603 15.4822 14.6003 20.1822 13.1603C20.3222 13.1203 20.4622 13.1003 20.5822 13.1003C21.1022 13.1003 21.5822 13.3403 21.5822 14.0603C21.5822 14.5403 21.2422 14.9203 20.7222 15.0803C18.9622 15.6603 17.1822 17.3203 16.4822 19.3403C17.1022 18.7603 17.9622 18.2803 19.0822 18.2803C21.3022 18.2803 23.3622 20.3803 23.3622 22.9003C23.3622 25.4003 21.3622 27.4803 18.7822 27.4803ZM18.7822 25.6203C20.2422 25.6203 21.3422 24.4603 21.3422 22.9003C21.3422 21.3803 20.3222 20.1203 18.8022 20.1203C17.2422 20.1203 16.1622 21.3603 16.1622 22.9203C16.1622 24.4003 17.2222 25.6203 18.7822 25.6203Z" fill="white"></path></svg>