<svg xmlns="http://www.w3.org/2000/svg" width="38" height="38" viewBox="0 0 38 38" fill="none"><circle cx="19.1606" cy="19.2803" r="18.5845" transform="rotate(-180 19.1606 19.2803)" fill="#09AF73"></circle><path d="M23.5206 23.2403C23.5206 25.5003 21.5006 27.3203 18.9606 27.3203C16.4206 27.3203 14.4206 25.5003 14.4206 23.2403C14.4206 21.6803 15.4006 20.6603 16.4406 20.0203C15.5406 19.5403 14.7406 18.6003 14.7406 17.2203C14.7406 15.0203 16.6206 13.2803 18.9606 13.2803C21.3006 13.2803 23.1606 15.0203 23.1606 17.2203C23.1606 18.7003 22.2606 19.5803 21.4406 20.0403C22.6806 20.7203 23.5206 21.9403 23.5206 23.2403ZM16.7606 17.2603C16.7606 18.5003 17.7406 19.4003 18.9606 19.4003C20.1806 19.4003 21.1406 18.5003 21.1406 17.2603C21.1406 16.0203 20.2206 15.1203 18.9606 15.1203C17.6806 15.1203 16.7606 16.0203 16.7606 17.2603ZM18.9606 25.4803C20.4206 25.4803 21.5006 24.5003 21.5006 23.2203C21.5006 21.9203 20.3606 20.9203 18.9606 20.9203C17.5606 20.9203 16.4206 21.9203 16.4206 23.2203C16.4206 24.5003 17.5006 25.4803 18.9606 25.4803Z" fill="white"></path></svg>