<svg xmlns="http://www.w3.org/2000/svg" width="38" height="38" viewBox="0 0 38 38" fill="none"><circle cx="18.8794" cy="19.2803" r="18.5845" transform="rotate(-180 18.8794 19.2803)" fill="#09AF73"></circle><path d="M18.8594 13.0403C21.8194 13.0403 23.5194 15.6403 23.5194 18.3403C23.5194 20.9403 22.1594 25.8203 17.4594 27.2803C17.3194 27.3203 17.1794 27.3403 17.0594 27.3403C16.5394 27.3403 16.0594 27.0603 16.0594 26.3803C16.0594 25.9003 16.3994 25.5203 16.9194 25.3603C18.6794 24.7603 20.4594 23.1803 21.1594 21.1803C20.5394 21.7603 19.6794 22.2203 18.5594 22.2203C16.3394 22.2203 14.2794 20.1203 14.2794 17.6203C14.2794 15.1003 16.2794 13.0403 18.8594 13.0403ZM18.8594 14.8803C17.3994 14.8803 16.2994 16.0403 16.2994 17.6203C16.2994 19.1203 17.3194 20.3803 18.8394 20.3803C20.3994 20.3803 21.4794 19.1403 21.4794 17.6003C21.4794 16.1003 20.4194 14.8803 18.8594 14.8803Z" fill="white"></path></svg>