<svg width="109" height="275" viewBox="0 0 109 275" fill="none" xmlns="http://www.w3.org/2000/svg">
<rect x="0.5" y="113.52" width="48.3616" height="47.9603" rx="23.9" stroke="white"/>
<path d="M16.2328 137.223L21.647 131.809C21.7411 131.726 21.8499 131.685 21.9733 131.685C22.0968 131.685 22.1996 131.726 22.2819 131.809C22.376 131.903 22.423 132.011 22.423 132.135C22.423 132.258 22.376 132.361 22.2819 132.443L17.6437 137.099H32.352C32.4813 137.099 32.5901 137.143 32.6783 137.232C32.7665 137.32 32.8106 137.428 32.8106 137.558C32.8106 137.675 32.7665 137.778 32.6783 137.866C32.5901 137.955 32.4813 137.999 32.352 137.999H17.6437L22.2819 142.655C22.376 142.737 22.423 142.84 22.423 142.963C22.423 143.087 22.376 143.195 22.2819 143.289C22.2467 143.336 22.1996 143.369 22.1409 143.386C22.0821 143.404 22.0233 143.413 21.9645 143.413C21.9057 143.413 21.8499 143.404 21.797 143.386C21.744 143.369 21.6941 143.336 21.647 143.289L16.2328 137.875C16.1505 137.781 16.1094 137.672 16.1094 137.549C16.1094 137.426 16.1505 137.317 16.2328 137.223Z" fill="#FE8D2B"/>
<rect x="59.8947" y="113.52" width="48.3616" height="47.9603" rx="23.9" stroke="white"/>
<path d="M92.5227 137.223L87.1084 131.809C87.0144 131.726 86.9056 131.685 86.7822 131.685C86.6587 131.685 86.5559 131.726 86.4736 131.809C86.3795 131.903 86.3325 132.011 86.3325 132.135C86.3325 132.258 86.3795 132.361 86.4736 132.443L91.1118 137.099H76.4035C76.2741 137.099 76.1654 137.143 76.0772 137.232C75.989 137.32 75.9449 137.428 75.9449 137.558C75.9449 137.675 75.989 137.778 76.0772 137.866C76.1654 137.955 76.2741 137.999 76.4035 137.999H91.1118L86.4736 142.655C86.3795 142.737 86.3325 142.84 86.3325 142.963C86.3325 143.087 86.3795 143.195 86.4736 143.289C86.5088 143.336 86.5559 143.369 86.6146 143.386C86.6734 143.404 86.7322 143.413 86.791 143.413C86.8498 143.413 86.9056 143.404 86.9585 143.386C87.0115 143.369 87.0614 143.336 87.1084 143.289L92.5227 137.875C92.605 137.781 92.6461 137.672 92.6461 137.549C92.6461 137.426 92.605 137.317 92.5227 137.223Z" fill="#FE8D2B"/>
</svg>
