<svg width="795" height="655" viewBox="0 0 795 655" fill="none" xmlns="http://www.w3.org/2000/svg">
<g clip-path="url(#clip0_1_533)">
<g clip-path="url(#clip1_1_533)">
<path d="M600.188 323.102C600.188 425.688 517.327 508.842 415.124 508.842C312.921 508.842 230.061 425.688 230.061 323.102C230.061 220.516 312.921 137.362 415.124 137.362C517.327 137.362 600.188 220.516 600.188 323.102Z" stroke="url(#paint0_linear_1_533)" stroke-width="2.70532"/>
<path d="M663.793 327.5C663.793 466.527 551.846 579.214 413.771 579.214C275.696 579.214 163.749 466.527 163.749 327.5C163.749 188.474 275.696 75.7869 413.771 75.7869C551.846 75.7869 663.793 188.474 663.793 327.5Z" stroke="#00B071" stroke-width="2.70532"/>
<path d="M602.256 362.835C625.447 362.835 644.247 344.17 644.247 321.147C644.247 298.123 625.447 279.458 602.256 279.458C579.065 279.458 560.266 298.123 560.266 321.147C560.266 344.17 579.065 362.835 602.256 362.835Z" fill="#EEEEEE"/>
<path d="M590.918 320.587L590.92 320.585C591.056 320.311 591.235 320.1 591.464 319.932L591.47 319.927L591.476 319.923L601.22 312.595C601.411 312.456 601.597 312.361 601.779 312.301C601.961 312.24 602.155 312.208 602.365 312.208C602.576 312.208 602.769 312.24 602.953 312.301C603.134 312.361 603.32 312.456 603.511 312.595L613.255 319.923L613.261 319.927L613.267 319.932C613.496 320.1 613.676 320.312 613.813 320.586C613.949 320.86 614.016 321.142 614.016 321.45V336.119C614.016 336.655 613.841 337.079 613.457 337.466C613.071 337.852 612.65 338.025 612.118 338.025H606.97V327.969V326.616H605.617H599.115H597.761V327.969V338.025H592.613C592.082 338.025 591.66 337.852 591.276 337.466C590.89 337.079 590.715 336.655 590.715 336.119V321.45C590.715 321.143 590.782 320.862 590.918 320.587Z" fill="#EEEEEE" stroke="#0060D9" stroke-width="2.70532"/>
<path d="M596.494 303.724L598.592 308.757" stroke="#0060D9" stroke-width="2.70532" stroke-linecap="round"/>
<path d="M608.241 303.724L606.143 308.757" stroke="#0060D9" stroke-width="2.70532" stroke-linecap="round"/>
<path d="M602.368 302.464V307.917" stroke="#0060D9" stroke-width="2.70532" stroke-linecap="round"/>
<path d="M410.765 551.62C433.955 551.62 452.755 532.956 452.755 509.932C452.755 486.908 433.955 468.243 410.765 468.243C387.574 468.243 368.774 486.908 368.774 509.932C368.774 532.956 387.574 551.62 410.765 551.62Z" fill="#EEEEEE"/>
<path d="M397.606 504.555C395.43 502.379 394.168 501.291 396.158 499.3C398.149 497.31 403.245 492.213 403.245 492.213C403.245 492.213 406.011 490.044 408.18 492.213C409.697 493.729 411.492 495.525 412.93 496.963L414.539 498.571C415.986 500.018 414.943 501.401 414.539 501.782C414.086 502.235 412.837 503.324 411.296 501.782L407.516 498.003L399.322 506.197C398.185 507.334 398.702 508.615 399.322 509.234C399.942 509.854 401.585 510.009 402.359 509.234C401.567 510.037 401.748 511.668 402.359 512.28C402.972 512.892 404.87 513.324 405.636 512.557C404.927 513.267 405.055 514.981 405.636 515.562C406.218 516.143 408.044 516.517 408.812 515.78C408.065 516.498 407.823 517.862 409.067 519.105C410.31 520.348 411.661 519.105 411.661 519.105L425.613 505.153C425.613 505.153 427.79 502.427 425.613 500.249L418.137 492.773C416.08 490.716 413.353 491.739 413.116 491.976L411.069 494.023M407.718 503.876L402.249 509.345M411.031 507.146L405.563 512.615M414.189 510.374L408.72 515.843" stroke="#AA28B2" stroke-width="2.02899"/>
<path d="M417.238 528.079L415.065 522.576" stroke="#AA28B2" stroke-width="2.02899" stroke-linecap="round"/>
<path d="M404.686 528.079L406.858 522.576" stroke="#AA28B2" stroke-width="2.02899" stroke-linecap="round"/>
<path d="M410.96 529.448V523.656" stroke="#AA28B2" stroke-width="2.02899" stroke-linecap="round"/>
<path d="M229.423 364.865C252.613 364.865 271.413 346.2 271.413 323.176C271.413 300.152 252.613 281.488 229.423 281.488C206.232 281.488 187.432 300.152 187.432 323.176C187.432 346.2 206.232 364.865 229.423 364.865Z" fill="#EEEEEE"/>
<path d="M224.938 331.599V330.875L224.336 330.473C221.977 328.9 220.388 326.135 220.388 322.952C220.388 317.784 224.484 313.687 229.653 313.687C234.821 313.687 238.917 317.784 238.917 322.952C238.917 325.964 237.341 328.758 234.928 330.502L234.367 330.906V331.599V335.087C234.367 335.098 234.365 335.117 234.355 335.142C234.345 335.167 234.33 335.19 234.313 335.207C234.298 335.224 234.283 335.234 234.27 335.24C234.259 335.244 234.24 335.251 234.203 335.251H225.102C225.066 335.251 225.046 335.244 225.035 335.24C225.022 335.234 225.007 335.224 224.991 335.207C224.975 335.19 224.961 335.167 224.951 335.142C224.94 335.117 224.938 335.098 224.938 335.087V331.599ZM226.619 341.319C226.583 341.319 226.563 341.312 226.552 341.307C226.539 341.301 226.524 341.292 226.508 341.275C226.492 341.257 226.477 341.234 226.468 341.21C226.458 341.185 226.455 341.165 226.455 341.155V340.991H232.85V341.155C232.85 341.165 232.848 341.185 232.838 341.21C232.828 341.234 232.813 341.257 232.797 341.275C232.781 341.292 232.766 341.301 232.753 341.307C232.742 341.312 232.723 341.319 232.687 341.319H226.619Z" stroke="#37A65E" stroke-width="2.70532"/>
<path d="M223.405 305.179L225.568 310.655" stroke="#37A65E" stroke-width="2.70532" stroke-linecap="round"/>
<path d="M211.791 318.719L217.612 319.603" stroke="#37A65E" stroke-width="2.70532" stroke-linecap="round"/>
<path d="M247.436 318.719L241.614 319.603" stroke="#37A65E" stroke-width="2.70532" stroke-linecap="round"/>
<path d="M235.898 305.179L233.736 310.655" stroke="#37A65E" stroke-width="2.70532" stroke-linecap="round"/>
<path d="M218.072 307.918L221.718 312.54" stroke="#37A65E" stroke-width="2.70532" stroke-linecap="round"/>
<path d="M241.156 307.918L237.509 312.54" stroke="#37A65E" stroke-width="2.70532" stroke-linecap="round"/>
<path d="M229.653 303.817V309.58" stroke="#37A65E" stroke-width="2.70532" stroke-linecap="round"/>
<path d="M213.753 312.633L218.736 315.531" stroke="#37A65E" stroke-width="2.70532" stroke-linecap="round"/>
<path d="M245.476 312.633L240.495 315.531" stroke="#37A65E" stroke-width="2.70532" stroke-linecap="round"/>
<path d="M420.914 185.553C444.105 185.553 462.905 166.888 462.905 143.864C462.905 120.84 444.105 102.176 420.914 102.176C397.724 102.176 378.924 120.84 378.924 143.864C378.924 166.888 397.724 185.553 420.914 185.553Z" fill="#EEEEEE"/>
<path d="M420.488 127.212V132.059" stroke="#FE8D2B" stroke-width="3.38164" stroke-linecap="round"/>
<path d="M415.27 127.958L417.134 132.432" stroke="#FE8D2B" stroke-width="3.38164" stroke-linecap="round"/>
<path d="M426.079 127.958L424.215 132.432" stroke="#FE8D2B" stroke-width="3.38164" stroke-linecap="round"/>
<path d="M411.742 145.616V139.704L420.675 135.772L429.609 139.704V145.616C429.609 151.239 425.756 156.457 420.675 157.899C415.594 156.457 411.742 151.239 411.742 145.616Z" stroke="#FE8D2B" stroke-width="3.38164"/>
<path d="M211.791 263.218C211.791 263.218 220.651 227.61 233.851 206.309C250.223 179.888 276.521 154.948 303.054 138.804C326.978 124.247 367.42 113.679 367.42 113.679" stroke="url(#paint1_linear_1_533)" stroke-width="4.7343" stroke-linecap="round"/>
<path d="M484.976 117.547C484.976 117.547 505.483 118.432 541.769 142.621C566.239 158.933 583.428 176.8 600.979 203.341C624.951 239.591 626.959 269.197 626.959 269.197" stroke="url(#paint2_linear_1_533)" stroke-width="4.7343" stroke-linecap="round"/>
<path d="M626.051 385.502C626.051 385.502 619.85 416.893 608.67 437.159C594.002 463.744 584.362 475.525 555.664 496.974C526.966 518.423 485.277 531.412 485.277 531.412" stroke="url(#paint3_linear_1_533)" stroke-width="4.7343" stroke-linecap="round"/>
<path d="M349.34 531.109C349.34 531.109 315.046 522.074 294.057 508.453C268.027 491.559 248.307 472.158 232.733 445.316C213.979 412.992 205.545 378.855 205.545 378.855" stroke="url(#paint4_linear_1_533)" stroke-width="4.7343" stroke-linecap="round"/>
<path d="M313.863 605.63C313.863 603.789 314.278 602.138 315.108 600.677C315.938 599.197 317.066 598.043 318.491 597.212C319.935 596.382 321.531 595.967 323.282 595.967C325.339 595.967 327.134 596.463 328.668 597.456C330.202 598.449 331.321 599.856 332.024 601.678H329.074C328.551 600.542 327.793 599.667 326.801 599.053C325.826 598.439 324.654 598.133 323.282 598.133C321.965 598.133 320.783 598.439 319.736 599.053C318.69 599.667 317.869 600.542 317.273 601.678C316.678 602.797 316.38 604.114 316.38 605.63C316.38 607.127 316.678 608.445 317.273 609.582C317.869 610.7 318.69 611.566 319.736 612.18C320.783 612.794 321.965 613.1 323.282 613.1C324.654 613.1 325.826 612.802 326.801 612.207C327.793 611.593 328.551 610.718 329.074 609.582H332.024C331.321 611.386 330.202 612.784 328.668 613.777C327.134 614.751 325.339 615.238 323.282 615.238C321.531 615.238 319.935 614.832 318.491 614.02C317.066 613.19 315.938 612.045 315.108 610.583C314.278 609.121 313.863 607.47 313.863 605.63ZM342.159 615.32C340.77 615.32 339.507 615.004 338.37 614.372C337.251 613.741 336.367 612.848 335.717 611.693C335.086 610.52 334.77 609.167 334.77 607.633C334.77 606.117 335.095 604.782 335.744 603.627C336.412 602.454 337.314 601.561 338.451 600.948C339.588 600.316 340.86 600 342.267 600C343.675 600 344.947 600.316 346.084 600.948C347.22 601.561 348.114 602.445 348.763 603.6C349.431 604.755 349.765 606.099 349.765 607.633C349.765 609.167 349.422 610.52 348.736 611.693C348.069 612.848 347.158 613.741 346.002 614.372C344.848 615.004 343.567 615.32 342.159 615.32ZM342.159 613.154C343.043 613.154 343.874 612.947 344.649 612.532C345.425 612.117 346.048 611.494 346.517 610.664C347.004 609.834 347.248 608.824 347.248 607.633C347.248 606.442 347.013 605.432 346.544 604.601C346.075 603.771 345.461 603.158 344.703 602.761C343.945 602.346 343.125 602.138 342.24 602.138C341.338 602.138 340.508 602.346 339.75 602.761C339.011 603.158 338.415 603.771 337.964 604.601C337.513 605.432 337.287 606.442 337.287 607.633C337.287 608.842 337.504 609.861 337.937 610.691C338.388 611.522 338.984 612.144 339.723 612.559C340.463 612.956 341.275 613.154 342.159 613.154ZM360.23 599.973C362.034 599.973 363.496 600.523 364.614 601.624C365.734 602.707 366.292 604.277 366.292 606.334V615.076H363.857V606.686C363.857 605.206 363.487 604.078 362.747 603.302C362.007 602.509 360.997 602.111 359.715 602.111C358.416 602.111 357.379 602.517 356.603 603.329C355.845 604.141 355.466 605.323 355.466 606.875V615.076H353.003V600.244H355.466V602.355C355.953 601.597 356.612 601.01 357.442 600.596C358.29 600.181 359.219 599.973 360.23 599.973ZM376.352 602.274H373.239V615.076H370.776V602.274H368.854V600.244H370.776V599.188C370.776 597.528 371.2 596.319 372.048 595.561C372.914 594.785 374.295 594.398 376.189 594.398V596.455C375.106 596.455 374.34 596.671 373.889 597.104C373.455 597.519 373.239 598.214 373.239 599.188V600.244H376.352V602.274ZM380.495 597.835C380.026 597.835 379.629 597.673 379.304 597.348C378.98 597.023 378.817 596.626 378.817 596.157C378.817 595.688 378.98 595.291 379.304 594.966C379.629 594.641 380.026 594.479 380.495 594.479C380.947 594.479 381.326 594.641 381.632 594.966C381.957 595.291 382.119 595.688 382.119 596.157C382.119 596.626 381.957 597.023 381.632 597.348C381.326 597.673 380.947 597.835 380.495 597.835ZM381.686 600.244V615.076H379.223V600.244H381.686ZM384.964 607.606C384.964 606.09 385.27 604.764 385.884 603.627C386.498 602.472 387.337 601.579 388.401 600.948C389.484 600.316 390.693 600 392.028 600C393.183 600 394.256 600.271 395.249 600.812C396.242 601.335 396.999 602.03 397.523 602.896V595.047H400.013V615.076H397.523V612.288C397.035 613.173 396.313 613.903 395.357 614.481C394.401 615.04 393.282 615.32 392.001 615.32C390.684 615.32 389.484 614.995 388.401 614.345C387.337 613.696 386.498 612.784 385.884 611.612C385.27 610.439 384.964 609.103 384.964 607.606ZM397.523 607.633C397.523 606.514 397.297 605.54 396.846 604.71C396.395 603.879 395.782 603.248 395.005 602.815C394.248 602.364 393.409 602.138 392.488 602.138C391.568 602.138 390.729 602.355 389.971 602.788C389.213 603.221 388.609 603.852 388.158 604.683C387.706 605.513 387.481 606.487 387.481 607.606C387.481 608.743 387.706 609.735 388.158 610.583C388.609 611.413 389.213 612.053 389.971 612.505C390.729 612.938 391.568 613.154 392.488 613.154C393.409 613.154 394.248 612.938 395.005 612.505C395.782 612.053 396.395 611.413 396.846 610.583C397.297 609.735 397.523 608.751 397.523 607.633ZM417.708 607.092C417.708 607.56 417.681 608.057 417.626 608.58H405.772C405.862 610.042 406.358 611.187 407.26 612.018C408.18 612.829 409.29 613.236 410.589 613.236C411.654 613.236 412.538 612.992 413.242 612.505C413.964 611.999 414.469 611.332 414.757 610.502H417.41C417.013 611.928 416.219 613.091 415.028 613.993C413.837 614.878 412.358 615.32 410.589 615.32C409.182 615.32 407.919 615.004 406.8 614.372C405.7 613.741 404.834 612.848 404.202 611.693C403.57 610.52 403.254 609.167 403.254 607.633C403.254 606.099 403.562 604.755 404.175 603.6C404.788 602.445 405.646 601.561 406.746 600.948C407.865 600.316 409.146 600 410.589 600C411.997 600 413.242 600.307 414.324 600.92C415.407 601.534 416.237 602.382 416.814 603.465C417.41 604.529 417.708 605.738 417.708 607.092ZM415.163 606.577C415.163 605.639 414.956 604.836 414.541 604.168C414.126 603.483 413.558 602.969 412.836 602.626C412.132 602.265 411.347 602.084 410.481 602.084C409.236 602.084 408.172 602.482 407.287 603.275C406.421 604.069 405.925 605.17 405.799 606.577H415.163ZM428.186 599.973C429.99 599.973 431.452 600.523 432.57 601.624C433.689 602.707 434.248 604.277 434.248 606.334V615.076H431.812V606.686C431.812 605.206 431.442 604.078 430.703 603.302C429.963 602.509 428.952 602.111 427.671 602.111C426.372 602.111 425.335 602.517 424.559 603.329C423.801 604.141 423.422 605.323 423.422 606.875V615.076H420.959V600.244H423.422V602.355C423.909 601.597 424.568 601.01 425.398 600.596C426.246 600.181 427.175 599.973 428.186 599.973ZM441.276 602.274V611.016C441.276 611.738 441.43 612.252 441.736 612.559C442.043 612.848 442.575 612.992 443.333 612.992H445.146V615.076H442.927C441.555 615.076 440.527 614.76 439.842 614.129C439.156 613.497 438.813 612.459 438.813 611.016V602.274H436.891V600.244H438.813V596.509H441.276V600.244H445.146V602.274H441.276ZM449.403 597.835C448.934 597.835 448.536 597.673 448.212 597.348C447.887 597.023 447.724 596.626 447.724 596.157C447.724 595.688 447.887 595.291 448.212 594.966C448.536 594.641 448.934 594.479 449.403 594.479C449.854 594.479 450.233 594.641 450.539 594.966C450.864 595.291 451.027 595.688 451.027 596.157C451.027 596.626 450.864 597.023 450.539 597.348C450.233 597.673 449.854 597.835 449.403 597.835ZM450.593 600.244V615.076H448.13V600.244H450.593ZM453.871 607.606C453.871 606.09 454.178 604.764 454.791 603.627C455.405 602.472 456.244 601.579 457.309 600.948C458.391 600.316 459.591 600 460.908 600C462.208 600 463.335 600.28 464.292 600.839C465.248 601.399 465.961 602.103 466.43 602.95V600.244H468.92V615.076H466.43V612.315C465.943 613.181 465.212 613.903 464.237 614.481C463.281 615.04 462.162 615.32 460.881 615.32C459.564 615.32 458.373 614.995 457.309 614.345C456.244 613.696 455.405 612.784 454.791 611.612C454.178 610.439 453.871 609.103 453.871 607.606ZM466.43 607.633C466.43 606.514 466.204 605.54 465.753 604.71C465.302 603.879 464.689 603.248 463.913 602.815C463.155 602.364 462.316 602.138 461.396 602.138C460.475 602.138 459.636 602.355 458.878 602.788C458.121 603.221 457.516 603.852 457.065 604.683C456.614 605.513 456.388 606.487 456.388 607.606C456.388 608.743 456.614 609.735 457.065 610.583C457.516 611.413 458.121 612.053 458.878 612.505C459.636 612.938 460.475 613.154 461.396 613.154C462.316 613.154 463.155 612.938 463.913 612.505C464.689 612.053 465.302 611.413 465.753 610.583C466.204 609.735 466.43 608.751 466.43 607.633ZM475.545 595.047V615.076H473.082V595.047H475.545ZM481.015 597.835C480.546 597.835 480.149 597.673 479.824 597.348C479.499 597.023 479.337 596.626 479.337 596.157C479.337 595.688 479.499 595.291 479.824 594.966C480.149 594.641 480.546 594.479 481.015 594.479C481.466 594.479 481.845 594.641 482.152 594.966C482.476 595.291 482.639 595.688 482.639 596.157C482.639 596.626 482.476 597.023 482.152 597.348C481.845 597.673 481.466 597.835 481.015 597.835ZM482.206 600.244V615.076H479.743V600.244H482.206ZM489.408 602.274V611.016C489.408 611.738 489.561 612.252 489.868 612.559C490.175 612.848 490.707 612.992 491.465 612.992H493.279V615.076H491.059C489.688 615.076 488.659 614.76 487.974 614.129C487.287 613.497 486.945 612.459 486.945 611.016V602.274H485.023V600.244H486.945V596.509H489.408V600.244H493.279V602.274H489.408ZM509.038 600.244L500.106 622.059H497.562L500.485 614.914L494.503 600.244H497.237L501.892 612.261L506.493 600.244H509.038ZM380.99 648.232L378.527 645.742C377.607 646.698 376.624 647.411 375.577 647.88C374.531 648.331 373.349 648.557 372.031 648.557C370.732 648.557 369.578 648.322 368.567 647.853C367.575 647.384 366.799 646.716 366.239 645.85C365.698 644.984 365.427 643.974 365.427 642.819C365.427 641.501 365.797 640.347 366.537 639.354C367.295 638.344 368.404 637.55 369.866 636.972C369.289 636.287 368.874 635.655 368.621 635.078C368.368 634.501 368.242 633.869 368.242 633.183C368.242 632.389 368.441 631.676 368.837 631.045C369.253 630.395 369.839 629.89 370.597 629.529C371.354 629.169 372.23 628.988 373.222 628.988C374.196 628.988 375.045 629.177 375.766 629.556C376.488 629.935 377.03 630.468 377.39 631.153C377.752 631.821 377.914 632.569 377.877 633.4H375.414C375.433 632.66 375.225 632.082 374.792 631.667C374.359 631.234 373.8 631.018 373.114 631.018C372.392 631.018 371.806 631.226 371.355 631.64C370.921 632.038 370.705 632.552 370.705 633.183C370.705 633.724 370.85 634.247 371.138 634.753C371.445 635.258 371.95 635.881 372.654 636.62L378.283 642.277L378.771 641.519L380.611 638.434H383.264L381.044 642.277C380.738 642.819 380.377 643.387 379.961 643.982L384.211 648.232H380.99ZM372.031 646.445C373.006 646.445 373.881 646.256 374.657 645.877C375.451 645.498 376.199 644.911 376.903 644.118L371.355 638.542C369.045 639.427 367.89 640.825 367.89 642.737C367.89 643.802 368.269 644.686 369.027 645.39C369.803 646.094 370.804 646.445 372.031 646.445ZM405.346 629.367V631.37H400.203V648.232H397.74V631.37H392.571V629.367H405.346ZM410.84 635.809C411.273 634.961 411.887 634.302 412.681 633.833C413.493 633.364 414.477 633.129 415.631 633.129V635.673H414.981C412.221 635.673 410.84 637.171 410.84 640.166V648.232H408.377V633.4H410.84V635.809ZM431.628 633.4V648.232H429.165V646.039C428.696 646.797 428.037 647.393 427.19 647.826C426.359 648.241 425.439 648.448 424.429 648.448C423.274 648.448 422.236 648.214 421.316 647.745C420.396 647.257 419.665 646.535 419.124 645.579C418.601 644.623 418.339 643.459 418.339 642.088V633.4H420.775V641.763C420.775 643.225 421.145 644.353 421.885 645.146C422.624 645.922 423.635 646.31 424.916 646.31C426.233 646.31 427.271 645.904 428.029 645.092C428.786 644.28 429.165 643.098 429.165 641.546V633.4H431.628ZM441.038 648.475C439.901 648.475 438.881 648.286 437.979 647.907C437.077 647.51 436.364 646.968 435.841 646.283C435.318 645.579 435.029 644.776 434.975 643.874H437.519C437.592 644.614 437.934 645.219 438.548 645.688C439.179 646.156 440.001 646.391 441.011 646.391C441.949 646.391 442.689 646.184 443.23 645.769C443.772 645.354 444.042 644.83 444.042 644.199C444.042 643.549 443.753 643.071 443.176 642.764C442.599 642.44 441.706 642.124 440.497 641.817C439.396 641.528 438.494 641.24 437.79 640.951C437.104 640.645 436.509 640.202 436.004 639.625C435.516 639.029 435.273 638.253 435.273 637.297C435.273 636.539 435.498 635.844 435.949 635.213C436.401 634.582 437.041 634.085 437.871 633.724C438.701 633.346 439.649 633.156 440.713 633.156C442.355 633.156 443.682 633.571 444.692 634.401C445.702 635.231 446.243 636.368 446.316 637.811H443.853C443.799 637.035 443.483 636.413 442.905 635.944C442.346 635.475 441.588 635.24 440.632 635.24C439.747 635.24 439.044 635.43 438.521 635.809C437.998 636.187 437.736 636.683 437.736 637.297C437.736 637.784 437.889 638.19 438.196 638.515C438.521 638.822 438.918 639.075 439.387 639.273C439.874 639.454 440.542 639.661 441.39 639.895C442.454 640.184 443.32 640.473 443.988 640.762C444.656 641.032 445.224 641.447 445.693 642.007C446.18 642.566 446.433 643.297 446.451 644.199C446.451 645.011 446.226 645.742 445.774 646.391C445.323 647.041 444.683 647.555 443.853 647.934C443.041 648.295 442.102 648.475 441.038 648.475ZM452.932 635.43V644.172C452.932 644.894 453.086 645.408 453.392 645.715C453.699 646.004 454.231 646.148 454.989 646.148H456.802V648.232H454.583C453.212 648.232 452.184 647.916 451.497 647.284C450.812 646.653 450.469 645.615 450.469 644.172V635.43H448.547V633.4H450.469V629.665H452.932V633.4H456.802V635.43H452.932Z" fill="#3A3A3A"/>
<path d="M47.8395 312.479H39.6115L38.0958 316.674H35.4974L42.3181 297.917H45.16L51.9535 316.674H49.3552L47.8395 312.479ZM47.1358 310.476L43.7255 300.949L40.3152 310.476H47.1358ZM61.0431 301.598C62.3242 301.598 63.4429 301.878 64.3993 302.437C65.3737 302.997 66.0954 303.7 66.5646 304.548V301.842H69.0548V316.999C69.0548 318.352 68.7658 319.552 68.1887 320.598C67.6111 321.663 66.7811 322.493 65.6985 323.089C64.6338 323.684 63.3888 323.982 61.9633 323.982C60.0146 323.982 58.3906 323.522 57.0915 322.601C55.7923 321.681 55.0254 320.427 54.7909 318.839H57.2268C57.4975 319.741 58.0568 320.463 58.9049 321.004C59.7529 321.564 60.7724 321.843 61.9633 321.843C63.3166 321.843 64.4173 321.419 65.2654 320.571C66.1315 319.724 66.5646 318.533 66.5646 316.999V313.886C66.0774 314.752 65.3556 315.474 64.3993 316.051C63.4429 316.629 62.3242 316.917 61.0431 316.917C59.7259 316.917 58.526 316.593 57.4433 315.943C56.3787 315.294 55.5396 314.382 54.9262 313.209C54.3127 312.037 54.006 310.701 54.006 309.204C54.006 307.688 54.3127 306.362 54.9262 305.225C55.5396 304.07 56.3787 303.177 57.4433 302.545C58.526 301.914 59.7259 301.598 61.0431 301.598ZM66.5646 309.231C66.5646 308.112 66.339 307.138 65.8879 306.308C65.4368 305.477 64.8233 304.846 64.0474 304.413C63.2896 303.962 62.4505 303.736 61.5303 303.736C60.6101 303.736 59.771 303.953 59.0132 304.386C58.2553 304.819 57.6508 305.45 57.1997 306.281C56.7486 307.111 56.5231 308.085 56.5231 309.204C56.5231 310.34 56.7486 311.333 57.1997 312.181C57.6508 313.011 58.2553 313.651 59.0132 314.103C59.771 314.536 60.6101 314.752 61.5303 314.752C62.4505 314.752 63.2896 314.536 64.0474 314.103C64.8233 313.651 65.4368 313.011 65.8879 312.181C66.339 311.333 66.5646 310.349 66.5646 309.231ZM74.4889 299.433C74.02 299.433 73.6228 299.27 73.298 298.946C72.9732 298.621 72.8108 298.224 72.8108 297.755C72.8108 297.286 72.9732 296.889 73.298 296.564C73.6228 296.239 74.02 296.077 74.4889 296.077C74.9403 296.077 75.3192 296.239 75.6257 296.564C75.9505 296.889 76.1129 297.286 76.1129 297.755C76.1129 298.224 75.9505 298.621 75.6257 298.946C75.3192 299.27 74.9403 299.433 74.4889 299.433ZM75.6798 301.842V316.674H73.2168V301.842H75.6798ZM82.3408 296.645V316.674H79.8778V296.645H82.3408ZM87.8108 299.433C87.3412 299.433 86.9447 299.27 86.6199 298.946C86.2951 298.621 86.1327 298.224 86.1327 297.755C86.1327 297.286 86.2951 296.889 86.6199 296.564C86.9447 296.239 87.3412 296.077 87.8108 296.077C88.2614 296.077 88.6404 296.239 88.9476 296.564C89.2724 296.889 89.4348 297.286 89.4348 297.755C89.4348 298.224 89.2724 298.621 88.9476 298.946C88.6404 299.27 88.2614 299.433 87.8108 299.433ZM89.0017 301.842V316.674H86.5387V301.842H89.0017ZM96.2033 303.872V312.614C96.2033 313.336 96.3569 313.85 96.6634 314.157C96.9706 314.446 97.5025 314.59 98.2603 314.59H100.074V316.674H97.8543C96.4834 316.674 95.4549 316.358 94.7688 315.727C94.0833 315.095 93.7403 314.057 93.7403 312.614V303.872H91.8186V301.842H93.7403V298.107H96.2033V301.842H100.074V303.872H96.2033ZM115.834 301.842L106.902 323.657H104.358L107.281 316.511L101.299 301.842H104.033L108.688 313.859L113.289 301.842H115.834ZM140.005 316.674L137.542 314.184C136.622 315.14 135.638 315.853 134.592 316.322C133.546 316.773 132.363 316.999 131.047 316.999C129.747 316.999 128.592 316.764 127.582 316.295C126.59 315.826 125.813 315.158 125.255 314.292C124.713 313.426 124.443 312.416 124.443 311.261C124.443 309.943 124.812 308.789 125.552 307.796C126.31 306.786 127.42 305.992 128.881 305.414C128.304 304.729 127.889 304.097 127.636 303.52C127.383 302.943 127.257 302.311 127.257 301.625C127.257 300.831 127.456 300.118 127.853 299.487C128.268 298.837 128.854 298.332 129.612 297.971C130.37 297.611 131.245 297.43 132.238 297.43C133.212 297.43 134.06 297.619 134.782 297.998C135.503 298.377 136.044 298.91 136.406 299.595C136.766 300.263 136.929 301.011 136.893 301.842H134.43C134.447 301.102 134.24 300.524 133.807 300.11C133.374 299.676 132.815 299.46 132.129 299.46C131.407 299.46 130.821 299.668 130.37 300.082C129.937 300.48 129.72 300.994 129.72 301.625C129.72 302.167 129.865 302.69 130.153 303.195C130.46 303.7 130.965 304.323 131.669 305.063L137.299 310.719L137.786 309.962L139.627 306.876H142.279L140.06 310.719C139.752 311.261 139.392 311.829 138.977 312.425L143.226 316.674H140.005ZM131.047 314.888C132.021 314.888 132.896 314.698 133.672 314.319C134.466 313.94 135.215 313.354 135.919 312.56L130.37 306.984C128.06 307.869 126.906 309.267 126.906 311.179C126.906 312.244 127.284 313.128 128.042 313.832C128.818 314.536 129.819 314.888 131.047 314.888ZM4.79028 330.965V349.83H2.32727V330.965H4.79028ZM16.2146 334.727C18.019 334.727 19.4806 335.277 20.5993 336.378C21.7181 337.461 22.2774 339.03 22.2774 341.087V349.83H19.8415V341.439C19.8415 339.959 19.4716 338.832 18.7318 338.056C17.992 337.262 16.9815 336.865 15.7004 336.865C14.4012 336.865 13.3637 337.271 12.5878 338.083C11.8299 338.895 11.451 340.077 11.451 341.629V349.83H8.98802V334.998H11.451V337.109C11.9382 336.351 12.5969 335.764 13.4268 335.349C14.2749 334.935 15.2042 334.727 16.2146 334.727ZM33.5274 334.727C35.3317 334.727 36.7933 335.277 37.9121 336.378C39.0308 337.461 39.5901 339.03 39.5901 341.087V349.83H37.1542V341.439C37.1542 339.959 36.7843 338.832 36.0445 338.056C35.3047 337.262 34.2942 336.865 33.0131 336.865C31.714 336.865 30.6764 337.271 29.9005 338.083C29.1427 338.895 28.7638 340.077 28.7638 341.629V349.83H26.3008V334.998H28.7638V337.109C29.251 336.351 29.9095 335.764 30.7396 335.349C31.5876 334.935 32.5169 334.727 33.5274 334.727ZM50.0822 350.073C48.6928 350.073 47.4297 349.757 46.293 349.126C45.1743 348.495 44.2901 347.601 43.6405 346.446C43.009 345.274 42.6932 343.921 42.6932 342.387C42.6932 340.871 43.018 339.536 43.6676 338.381C44.3352 337.208 45.2374 336.315 46.3742 335.701C47.5109 335.07 48.783 334.754 50.1905 334.754C51.5979 334.754 52.87 335.07 54.0068 335.701C55.1435 336.315 56.0367 337.199 56.6863 338.354C57.354 339.509 57.6877 340.853 57.6877 342.387C57.6877 343.921 57.3449 345.274 56.6592 346.446C55.9916 347.601 55.0804 348.495 53.9256 349.126C52.7707 349.757 51.4896 350.073 50.0822 350.073ZM50.0822 347.908C50.9664 347.908 51.7964 347.7 52.5723 347.285C53.3482 346.871 53.9707 346.248 54.4398 345.418C54.927 344.588 55.1706 343.577 55.1706 342.387C55.1706 341.196 54.936 340.185 54.4669 339.355C53.9978 338.525 53.3843 337.912 52.6264 337.515C51.8686 337.1 51.0476 336.892 50.1634 336.892C49.2612 336.892 48.4312 337.1 47.6733 337.515C46.9336 337.912 46.3381 338.525 45.887 339.355C45.4359 340.185 45.2103 341.196 45.2103 342.387C45.2103 343.596 45.4269 344.615 45.8599 345.445C46.311 346.275 46.9065 346.898 47.6463 347.313C48.386 347.71 49.198 347.908 50.0822 347.908ZM66.4476 347.556L71.0489 334.998H73.6742L67.8551 349.83H64.986L59.1668 334.998H61.8193L66.4476 347.556ZM75.1778 342.359C75.1778 340.844 75.4843 339.518 76.098 338.381C76.711 337.226 77.5501 336.333 78.6151 335.701C79.6978 335.07 80.8975 334.754 82.2149 334.754C83.5141 334.754 84.6414 335.033 85.5982 335.593C86.5543 336.153 87.2668 336.856 87.7364 337.704V334.998H90.2264V349.83H87.7364V347.069C87.2492 347.935 86.5184 348.657 85.544 349.234C84.5872 349.794 83.4687 350.073 82.1878 350.073C80.8704 350.073 79.6795 349.748 78.6151 349.099C77.5501 348.449 76.711 347.538 76.098 346.365C75.4843 345.193 75.1778 343.857 75.1778 342.359ZM87.7364 342.387C87.7364 341.268 87.5104 340.294 87.0597 339.463C86.6084 338.633 85.9947 338.002 85.2192 337.569C84.4614 337.117 83.6223 336.892 82.7021 336.892C81.7819 336.892 80.9428 337.109 80.185 337.542C79.4271 337.975 78.8222 338.606 78.3715 339.436C77.9202 340.267 77.6949 341.241 77.6949 342.359C77.6949 343.496 77.9202 344.489 78.3715 345.337C78.8222 346.167 79.4271 346.807 80.185 347.258C80.9428 347.691 81.7819 347.908 82.7021 347.908C83.6223 347.908 84.4614 347.691 85.2192 347.258C85.9947 346.807 86.6084 346.167 87.0597 345.337C87.5104 344.489 87.7364 343.505 87.7364 342.387ZM97.3928 337.027V345.77C97.3928 346.492 97.5464 347.006 97.853 347.313C98.1595 347.601 98.692 347.746 99.4498 347.746H101.263V349.83H99.0438C97.6723 349.83 96.6438 349.514 95.9583 348.882C95.2729 348.251 94.9298 347.213 94.9298 345.77V337.027H93.0081V334.998H94.9298V331.262H97.3928V334.998H101.263V337.027H97.3928ZM105.519 332.589C105.05 332.589 104.653 332.426 104.328 332.101C104.004 331.777 103.841 331.379 103.841 330.911C103.841 330.442 104.004 330.044 104.328 329.72C104.653 329.395 105.05 329.232 105.519 329.232C105.971 329.232 106.35 329.395 106.656 329.72C106.981 330.044 107.143 330.442 107.143 330.911C107.143 331.379 106.981 331.777 106.656 332.101C106.35 332.426 105.971 332.589 105.519 332.589ZM106.71 334.998V349.83H104.247V334.998H106.71ZM117.377 350.073C115.988 350.073 114.725 349.757 113.588 349.126C112.469 348.495 111.585 347.601 110.935 346.446C110.304 345.274 109.988 343.921 109.988 342.387C109.988 340.871 110.313 339.536 110.962 338.381C111.63 337.208 112.532 336.315 113.669 335.701C114.806 335.07 116.078 334.754 117.485 334.754C118.893 334.754 120.165 335.07 121.302 335.701C122.438 336.315 123.331 337.199 123.981 338.354C124.649 339.509 124.983 340.853 124.983 342.387C124.983 343.921 124.639 345.274 123.954 346.446C123.286 347.601 122.375 348.495 121.22 349.126C120.065 349.757 118.784 350.073 117.377 350.073ZM117.377 347.908C118.261 347.908 119.091 347.7 119.867 347.285C120.643 346.871 121.266 346.248 121.735 345.418C122.222 344.588 122.465 343.577 122.465 342.387C122.465 341.196 122.231 340.185 121.762 339.355C121.293 338.525 120.679 337.912 119.921 337.515C119.163 337.1 118.343 336.892 117.458 336.892C116.556 336.892 115.726 337.1 114.968 337.515C114.229 337.912 113.633 338.525 113.182 339.355C112.73 340.185 112.505 341.196 112.505 342.387C112.505 343.596 112.722 344.615 113.155 345.445C113.606 346.275 114.201 346.898 114.941 347.313C115.681 347.71 116.493 347.908 117.377 347.908ZM135.448 334.727C137.252 334.727 138.714 335.277 139.832 336.378C140.951 337.461 141.51 339.03 141.51 341.087V349.83H139.074V341.439C139.074 339.959 138.704 338.832 137.965 338.056C137.225 337.262 136.214 336.865 134.933 336.865C133.634 336.865 132.597 337.271 131.821 338.083C131.063 338.895 130.684 340.077 130.684 341.629V349.83H128.221V334.998H130.684V337.109C131.171 336.351 131.83 335.764 132.66 335.349C133.508 334.935 134.437 334.727 135.448 334.727Z" fill="#3A3A3A"/>
<path d="M373.187 29.9642L369.425 26.202C368.504 26.4546 367.566 26.5809 366.61 26.5809C364.859 26.5809 363.262 26.1749 361.819 25.3629C360.376 24.5329 359.23 23.3871 358.382 21.9256C357.552 20.4459 357.137 18.7859 357.137 16.9454C357.137 15.1049 357.552 13.4539 358.382 11.9924C359.23 10.5127 360.376 9.36695 361.819 8.55497C363.262 7.72493 364.859 7.30994 366.61 7.30994C368.378 7.30994 369.984 7.72493 371.428 8.55497C372.871 9.36695 374.008 10.5037 374.838 11.9653C375.668 13.4268 376.083 15.0869 376.083 16.9454C376.083 18.7498 375.686 20.3738 374.892 21.8173C374.098 23.2608 373.006 24.3976 371.617 25.2276L376.381 29.9642H373.187ZM359.654 16.9454C359.654 18.4431 359.952 19.7603 360.547 20.8971C361.161 22.0338 361.99 22.9089 363.037 23.5225C364.101 24.136 365.292 24.4427 366.61 24.4427C367.927 24.4427 369.109 24.136 370.155 23.5225C371.22 22.9089 372.05 22.0338 372.646 20.8971C373.259 19.7603 373.566 18.4431 373.566 16.9454C373.566 15.4297 373.259 14.1125 372.646 12.9938C372.05 11.857 371.229 10.9819 370.183 10.3684C369.136 9.75488 367.945 9.44815 366.61 9.44815C365.275 9.44815 364.084 9.75488 363.037 10.3684C361.99 10.9819 361.161 11.857 360.547 12.9938C359.952 14.1125 359.654 15.4297 359.654 16.9454ZM392.541 11.5593V26.3914H390.078V24.1991C389.609 24.9569 388.951 25.5524 388.102 25.9855C387.273 26.4004 386.352 26.608 385.342 26.608C384.187 26.608 383.149 26.3734 382.229 25.9043C381.309 25.4171 380.578 24.6953 380.037 23.739C379.514 22.7827 379.252 21.6188 379.252 20.2475V11.5593H381.688V19.9227C381.688 21.3842 382.058 22.512 382.797 23.3059C383.538 24.0818 384.548 24.4698 385.829 24.4698C387.146 24.4698 388.183 24.0638 388.941 23.2518C389.699 22.4398 390.078 21.2579 390.078 19.7062V11.5593H392.541ZM395.78 18.9212C395.78 17.4055 396.087 16.0793 396.7 14.9425C397.313 13.7877 398.153 12.8945 399.217 12.263C400.3 11.6315 401.5 11.3157 402.817 11.3157C404.116 11.3157 405.244 11.5954 406.2 12.1547C407.157 12.7141 407.869 13.4178 408.338 14.2659V11.5593H410.828V26.3914H408.338V23.6307C407.851 24.4968 407.12 25.2186 406.146 25.796C405.19 26.3554 404.071 26.635 402.79 26.635C401.473 26.635 400.282 26.3102 399.217 25.6607C398.153 25.0111 397.313 24.0998 396.7 22.927C396.087 21.7542 395.78 20.4189 395.78 18.9212ZM408.338 18.9483C408.338 17.8296 408.113 16.8552 407.661 16.0252C407.211 15.1951 406.597 14.5636 405.821 14.1306C405.063 13.6794 404.224 13.4539 403.304 13.4539C402.384 13.4539 401.545 13.6704 400.787 14.1035C400.029 14.5366 399.425 15.1681 398.973 15.9981C398.523 16.8282 398.297 17.8025 398.297 18.9212C398.297 20.058 398.523 21.0505 398.973 21.8985C399.425 22.7285 400.029 23.3691 400.787 23.8202C401.545 24.2532 402.384 24.4698 403.304 24.4698C404.224 24.4698 405.063 24.2532 405.821 23.8202C406.597 23.3691 407.211 22.7285 407.661 21.8985C408.113 21.0505 408.338 20.067 408.338 18.9483ZM417.454 6.36263V26.3914H414.991V6.36263H417.454ZM422.923 9.15043C422.454 9.15043 422.057 8.98803 421.732 8.66324C421.408 8.33845 421.245 7.94146 421.245 7.47234C421.245 7.00322 421.408 6.60623 421.732 6.28143C422.057 5.95664 422.454 5.79425 422.923 5.79425C423.375 5.79425 423.754 5.95664 424.06 6.28143C424.385 6.60623 424.547 7.00322 424.547 7.47234C424.547 7.94146 424.385 8.33845 424.06 8.66324C423.754 8.98803 423.375 9.15043 422.923 9.15043ZM424.114 11.5593V26.3914H421.651V11.5593H424.114ZM431.316 13.5892V22.3315C431.316 23.0533 431.47 23.5676 431.777 23.8743C432.083 24.163 432.616 24.3074 433.373 24.3074H435.187V26.3914H432.967C431.596 26.3914 430.567 26.0757 429.882 25.4441C429.197 24.8126 428.853 23.775 428.853 22.3315V13.5892H426.932V11.5593H428.853V7.82419H431.316V11.5593H435.187V13.5892H431.316ZM450.946 11.5593L442.014 33.3745H439.47L442.393 26.229L436.412 11.5593H439.145L443.801 23.5766L448.402 11.5593H450.946ZM475.119 26.3914L472.656 23.9014C471.735 24.8577 470.752 25.5705 469.705 26.0396C468.659 26.4907 467.477 26.7162 466.16 26.7162C464.861 26.7162 463.706 26.4816 462.695 26.0125C461.703 25.5434 460.927 24.8757 460.368 24.0096C459.826 23.1435 459.556 22.1331 459.556 20.9783C459.556 19.661 459.925 18.5063 460.665 17.5138C461.423 16.5034 462.533 15.7094 463.995 15.132C463.417 14.4464 463.002 13.8148 462.749 13.2374C462.496 12.66 462.371 12.0284 462.371 11.3428C462.371 10.5489 462.569 9.83607 462.966 9.20456C463.381 8.55497 463.967 8.04972 464.725 7.68886C465.483 7.32801 466.358 7.14754 467.351 7.14754C468.325 7.14754 469.173 7.33701 469.895 7.71593C470.616 8.09485 471.158 8.62717 471.519 9.31282C471.88 9.98047 472.042 10.7293 472.006 11.5593H469.543C469.561 10.8195 469.354 10.2421 468.921 9.82708C468.488 9.39402 467.928 9.17749 467.242 9.17749C466.52 9.17749 465.934 9.38502 465.483 9.80001C465.05 10.197 464.834 10.7113 464.834 11.3428C464.834 11.8841 464.978 12.4073 465.267 12.9126C465.573 13.4178 466.079 14.0404 466.782 14.7801L472.412 20.4369L472.899 19.6791L474.74 16.5936H477.392L475.173 20.4369C474.866 20.9783 474.505 21.5466 474.09 22.1421L478.34 26.3914H475.119ZM466.16 24.6051C467.134 24.6051 468.009 24.4156 468.785 24.0367C469.579 23.6578 470.328 23.0713 471.032 22.2774L465.483 16.7018C463.173 17.586 462.019 18.9844 462.019 20.8971C462.019 21.9616 462.398 22.8458 463.156 23.5495C463.931 24.2532 464.932 24.6051 466.16 24.6051ZM330.864 50.1012C330.864 48.2607 331.279 46.6097 332.109 45.1482C332.939 43.6685 334.066 42.5138 335.492 41.6837C336.935 40.8537 338.532 40.4387 340.283 40.4387C342.34 40.4387 344.135 40.9349 345.669 41.9273C347.203 42.9197 348.321 44.3272 349.025 46.1496H346.075C345.552 45.0128 344.794 44.1377 343.801 43.5242C342.827 42.9107 341.654 42.604 340.283 42.604C338.965 42.604 337.784 42.9107 336.737 43.5242C335.69 44.1377 334.87 45.0128 334.274 46.1496C333.679 47.2683 333.381 48.5855 333.381 50.1012C333.381 51.5989 333.679 52.9161 334.274 54.0529C334.87 55.1716 335.69 56.0377 336.737 56.6512C337.784 57.2647 338.965 57.5714 340.283 57.5714C341.654 57.5714 342.827 57.2737 343.801 56.6783C344.794 56.0647 345.552 55.1896 346.075 54.0529H349.025C348.321 55.8573 347.203 57.2556 345.669 58.2481C344.135 59.2225 342.34 59.7096 340.283 59.7096C338.532 59.7096 336.935 59.3037 335.492 58.4917C334.066 57.6616 332.939 56.5159 332.109 55.0543C331.279 53.5927 330.864 51.9417 330.864 50.1012ZM359.16 59.7908C357.771 59.7908 356.507 59.4751 355.371 58.8435C354.252 58.212 353.368 57.3188 352.718 56.164C352.087 54.9912 351.771 53.6379 351.771 52.1041C351.771 50.5884 352.096 49.2532 352.745 48.0983C353.413 46.9255 354.315 46.0323 355.452 45.4188C356.589 44.7873 357.861 44.4715 359.268 44.4715C360.676 44.4715 361.948 44.7873 363.084 45.4188C364.221 46.0323 365.114 46.9164 365.764 48.0713C366.432 49.2261 366.765 50.5704 366.765 52.1041C366.765 53.6379 366.423 54.9912 365.737 56.164C365.07 57.3188 364.158 58.212 363.003 58.8435C361.849 59.4751 360.567 59.7908 359.16 59.7908ZM359.16 57.6256C360.044 57.6256 360.875 57.418 361.65 57.0031C362.426 56.5881 363.049 55.9655 363.518 55.1355C364.005 54.3055 364.248 53.295 364.248 52.1041C364.248 50.9132 364.014 49.9028 363.545 49.0727C363.076 48.2427 362.462 47.6292 361.704 47.2322C360.946 46.8172 360.126 46.6097 359.241 46.6097C358.339 46.6097 357.509 46.8172 356.751 47.2322C356.011 47.6292 355.416 48.2427 354.965 49.0727C354.514 49.9028 354.288 50.9132 354.288 52.1041C354.288 53.3131 354.505 54.3325 354.938 55.1626C355.389 55.9926 355.984 56.6151 356.724 57.0301C357.464 57.4271 358.276 57.6256 359.16 57.6256ZM387.84 44.4444C388.995 44.4444 390.024 44.688 390.926 45.1752C391.829 45.6443 392.541 46.3571 393.064 47.3134C393.588 48.2697 393.849 49.4336 393.849 50.8049V59.5473H391.413V51.1568C391.413 49.6772 391.044 48.5495 390.303 47.7736C389.582 46.9796 388.598 46.5827 387.353 46.5827C386.072 46.5827 385.053 46.9976 384.295 47.8277C383.537 48.6397 383.158 49.8216 383.158 51.3733V59.5473H380.722V51.1568C380.722 49.6772 380.353 48.5495 379.612 47.7736C378.891 46.9796 377.907 46.5827 376.662 46.5827C375.381 46.5827 374.362 46.9976 373.604 47.8277C372.846 48.6397 372.467 49.8216 372.467 51.3733V59.5473H370.004V44.7151H372.467V46.8533C372.954 46.0774 373.604 45.4819 374.416 45.067C375.246 44.652 376.157 44.4444 377.149 44.4444C378.394 44.4444 379.495 44.7241 380.451 45.2835C381.408 45.8429 382.121 46.6638 382.59 47.7465C383.005 46.6999 383.691 45.8879 384.647 45.3106C385.603 44.7332 386.668 44.4444 387.84 44.4444ZM415.726 44.4444C416.881 44.4444 417.909 44.688 418.811 45.1752C419.714 45.6443 420.426 46.3571 420.95 47.3134C421.473 48.2697 421.734 49.4336 421.734 50.8049V59.5473H419.298V51.1568C419.298 49.6772 418.929 48.5495 418.189 47.7736C417.467 46.9796 416.484 46.5827 415.239 46.5827C413.958 46.5827 412.938 46.9976 412.18 47.8277C411.422 48.6397 411.043 49.8216 411.043 51.3733V59.5473H408.607V51.1568C408.607 49.6772 408.238 48.5495 407.498 47.7736C406.776 46.9796 405.793 46.5827 404.548 46.5827C403.267 46.5827 402.247 46.9976 401.489 47.8277C400.731 48.6397 400.352 49.8216 400.352 51.3733V59.5473H397.889V44.7151H400.352V46.8533C400.84 46.0774 401.489 45.4819 402.301 45.067C403.131 44.652 404.043 44.4444 405.035 44.4444C406.28 44.4444 407.381 44.7241 408.337 45.2835C409.294 45.8429 410.006 46.6638 410.475 47.7465C410.89 46.6999 411.576 45.8879 412.532 45.3106C413.489 44.7332 414.553 44.4444 415.726 44.4444ZM427.047 42.3062C426.578 42.3062 426.181 42.1438 425.856 41.819C425.531 41.4943 425.369 41.0973 425.369 40.6281C425.369 40.159 425.531 39.762 425.856 39.4372C426.181 39.1124 426.578 38.9501 427.047 38.9501C427.498 38.9501 427.877 39.1124 428.184 39.4372C428.508 39.762 428.671 40.159 428.671 40.6281C428.671 41.0973 428.508 41.4943 428.184 41.819C427.877 42.1438 427.498 42.3062 427.047 42.3062ZM428.238 44.7151V59.5473H425.775V44.7151H428.238ZM435.44 46.7451V55.4874C435.44 56.2091 435.594 56.7234 435.9 57.0301C436.207 57.3188 436.739 57.4632 437.497 57.4632H439.31V59.5473H437.091C435.719 59.5473 434.691 59.2315 434.005 58.5999C433.32 57.9684 432.977 56.9309 432.977 55.4874V46.7451H431.055V44.7151H432.977V40.98H435.44V44.7151H439.31V46.7451H435.44ZM460.131 44.4444C461.286 44.4444 462.314 44.688 463.216 45.1752C464.119 45.6443 464.832 46.3571 465.355 47.3134C465.878 48.2697 466.14 49.4336 466.14 50.8049V59.5473H463.704V51.1568C463.704 49.6772 463.334 48.5495 462.594 47.7736C461.873 46.9796 460.889 46.5827 459.644 46.5827C458.363 46.5827 457.343 46.9976 456.585 47.8277C455.827 48.6397 455.448 49.8216 455.448 51.3733V59.5473H453.013V51.1568C453.013 49.6772 452.643 48.5495 451.903 47.7736C451.182 46.9796 450.198 46.5827 448.953 46.5827C447.672 46.5827 446.652 46.9976 445.894 47.8277C445.136 48.6397 444.757 49.8216 444.757 51.3733V59.5473H442.294V44.7151H444.757V46.8533C445.245 46.0774 445.894 45.4819 446.706 45.067C447.536 44.652 448.448 44.4444 449.44 44.4444C450.685 44.4444 451.786 44.7241 452.742 45.2835C453.699 45.8429 454.411 46.6638 454.88 47.7465C455.296 46.6999 455.981 45.8879 456.937 45.3106C457.894 44.7332 458.958 44.4444 460.131 44.4444ZM483.713 51.5628C483.713 52.0319 483.686 52.5282 483.632 53.0514H471.777C471.867 54.513 472.363 55.6588 473.265 56.4888C474.186 57.3008 475.295 57.7068 476.594 57.7068C477.659 57.7068 478.543 57.4632 479.247 56.976C479.969 56.4707 480.474 55.8031 480.763 54.9731H483.415C483.018 56.3986 482.224 57.5624 481.033 58.4646C479.842 59.3488 478.362 59.7908 476.594 59.7908C475.187 59.7908 473.924 59.4751 472.805 58.8435C471.704 58.212 470.838 57.3188 470.207 56.164C469.576 54.9912 469.26 53.6379 469.26 52.1041C469.26 50.5704 469.566 49.2261 470.18 48.0713C470.794 46.9164 471.65 46.0323 472.751 45.4188C473.87 44.7873 475.151 44.4715 476.594 44.4715C478.002 44.4715 479.247 44.7782 480.33 45.3918C481.412 46.0053 482.242 46.8533 482.82 47.9359C483.415 49.0005 483.713 50.2095 483.713 51.5628ZM481.169 51.0485C481.169 50.1102 480.961 49.3073 480.546 48.6397C480.131 47.954 479.563 47.4398 478.841 47.0969C478.137 46.736 477.352 46.5556 476.486 46.5556C475.241 46.5556 474.177 46.9526 473.292 47.7465C472.426 48.5404 471.93 49.6411 471.804 51.0485H481.169ZM494.191 44.4444C495.995 44.4444 497.457 44.9948 498.575 46.0955C499.694 47.1781 500.253 48.7479 500.253 50.8049V59.5473H497.818V51.1568C497.818 49.6772 497.447 48.5495 496.708 47.7736C495.968 46.9796 494.957 46.5827 493.676 46.5827C492.377 46.5827 491.34 46.9886 490.564 47.8006C489.806 48.6126 489.427 49.7945 489.427 51.3463V59.5473H486.964V44.7151H489.427V46.8262C489.914 46.0684 490.573 45.4819 491.403 45.067C492.251 44.652 493.18 44.4444 494.191 44.4444ZM507.281 46.7451V55.4874C507.281 56.2091 507.434 56.7234 507.741 57.0301C508.048 57.3188 508.58 57.4632 509.338 57.4632H511.152V59.5473H508.932C507.561 59.5473 506.532 59.2315 505.847 58.5999C505.161 57.9684 504.818 56.9309 504.818 55.4874V46.7451H502.896V44.7151H504.818V40.98H507.281V44.7151H511.152V46.7451H507.281Z" fill="#3A3A3A"/>
<path d="M687.963 299.162V318.027H685.5V299.162H687.963ZM699.384 302.924C701.191 302.924 702.653 303.474 703.769 304.575C704.892 305.658 705.447 307.228 705.447 309.285V318.027H703.011V309.637C703.011 308.157 702.646 307.029 701.902 306.253C701.164 305.46 700.156 305.062 698.87 305.062C697.571 305.062 696.536 305.468 695.758 306.28C695 307.092 694.621 308.275 694.621 309.826V318.027H692.158V303.195H694.621V305.306C695.108 304.548 695.771 303.962 696.597 303.547C697.449 303.132 698.376 302.924 699.384 302.924ZM712.478 305.225V313.967C712.478 314.689 712.633 315.203 712.938 315.51C713.242 315.799 713.777 315.943 714.535 315.943H716.348V318.027H714.129C712.755 318.027 711.726 317.711 711.043 317.08C710.36 316.448 710.015 315.41 710.015 313.967V305.225H708.093V303.195H710.015V299.46H712.478V303.195H716.348V305.225H712.478ZM732.865 310.043C732.865 310.512 732.838 311.008 732.784 311.531H720.929C721.017 312.993 721.518 314.138 722.418 314.969C723.338 315.781 724.448 316.187 725.747 316.187C726.809 316.187 727.695 315.943 728.399 315.456C729.123 314.95 729.624 314.283 729.915 313.453H732.567C732.168 314.879 731.376 316.042 730.185 316.944C728.995 317.829 727.513 318.271 725.747 318.271C724.339 318.271 723.074 317.955 721.957 317.323C720.854 316.692 719.988 315.799 719.359 314.644C718.73 313.471 718.412 312.118 718.412 310.584C718.412 309.05 718.716 307.706 719.332 306.551C719.948 305.396 720.8 304.512 721.903 303.899C723.02 303.267 724.305 302.951 725.747 302.951C727.154 302.951 728.399 303.258 729.482 303.872C730.564 304.485 731.397 305.333 731.972 306.416C732.567 307.48 732.865 308.689 732.865 310.043ZM730.321 309.528C730.321 308.59 730.111 307.787 729.698 307.119C729.286 306.434 728.717 305.92 727.993 305.577C727.289 305.216 726.505 305.035 725.638 305.035C724.393 305.035 723.331 305.433 722.445 306.226C721.579 307.02 721.085 308.121 720.956 309.528H730.321ZM742.23 302.951C743.516 302.951 744.632 303.231 745.586 303.79C746.56 304.35 747.284 305.054 747.751 305.901V303.195H750.241V318.352C750.241 319.705 749.957 320.905 749.375 321.952C748.8 323.016 747.968 323.846 746.885 324.442C745.823 325.037 744.578 325.335 743.15 325.335C741.201 325.335 739.577 324.875 738.278 323.955C736.979 323.034 736.214 321.78 735.978 320.192H738.414C738.684 321.094 739.246 321.816 740.092 322.358C740.944 322.917 741.959 323.197 743.15 323.197C744.503 323.197 745.606 322.772 746.452 321.925C747.318 321.077 747.751 319.886 747.751 318.352V315.239C747.264 316.105 746.547 316.827 745.586 317.405C744.632 317.982 743.516 318.271 742.23 318.271C740.917 318.271 739.713 317.946 738.63 317.296C737.568 316.647 736.729 315.735 736.113 314.563C735.504 313.39 735.193 312.054 735.193 310.557C735.193 309.041 735.504 307.715 736.113 306.578C736.729 305.423 737.568 304.53 738.63 303.899C739.713 303.267 740.917 302.951 742.23 302.951ZM747.751 310.584C747.751 309.465 747.528 308.491 747.075 307.661C746.628 306.831 746.012 306.199 745.234 305.766C744.476 305.315 743.637 305.09 742.717 305.09C741.797 305.09 740.958 305.306 740.2 305.739C739.442 306.172 738.84 306.803 738.386 307.634C737.94 308.464 737.71 309.438 737.71 310.557C737.71 311.694 737.94 312.686 738.386 313.534C738.84 314.364 739.442 315.004 740.2 315.456C740.958 315.889 741.797 316.105 742.717 316.105C743.637 316.105 744.476 315.889 745.234 315.456C746.012 315.004 746.628 314.364 747.075 313.534C747.528 312.686 747.751 311.702 747.751 310.584ZM756.873 305.604C757.306 304.756 757.915 304.097 758.713 303.628C759.525 303.159 760.506 302.924 761.663 302.924V305.468H761.014C758.253 305.468 756.873 306.966 756.873 309.961V318.027H754.41V303.195H756.873V305.604ZM765.777 300.786C765.304 300.786 764.911 300.624 764.586 300.299C764.262 299.974 764.099 299.577 764.099 299.108C764.099 298.639 764.262 298.242 764.586 297.917C764.911 297.592 765.304 297.43 765.777 297.43C766.224 297.43 766.603 297.592 766.914 297.917C767.239 298.242 767.401 298.639 767.401 299.108C767.401 299.577 767.239 299.974 766.914 300.299C766.603 300.624 766.224 300.786 765.777 300.786ZM766.968 303.195V318.027H764.505V303.195H766.968ZM774.168 305.225V313.967C774.168 314.689 774.323 315.203 774.628 315.51C774.932 315.799 775.467 315.943 776.225 315.943H778.038V318.027H775.819C774.445 318.027 773.417 317.711 772.733 317.08C772.05 316.448 771.705 315.41 771.705 313.967V305.225H769.783V303.195H771.705V299.46H774.168V303.195H778.038V305.225H774.168ZM793.797 303.195L784.866 325.01H782.321L785.244 317.865L779.263 303.195H781.996L786.652 315.212L791.253 303.195H793.797ZM699.98 351.183L697.517 348.693C696.597 349.649 695.615 350.362 694.567 350.831C693.518 351.282 692.341 351.508 691.021 351.508C689.722 351.508 688.565 351.273 687.557 350.804C686.562 350.335 685.791 349.667 685.229 348.801C684.688 347.935 684.417 346.925 684.417 345.77C684.417 344.452 684.789 343.298 685.527 342.305C686.285 341.295 687.394 340.501 688.856 339.923C688.281 339.238 687.861 338.606 687.611 338.029C687.36 337.452 687.232 336.82 687.232 336.134C687.232 335.34 687.428 334.627 687.827 333.996C688.24 333.346 688.829 332.841 689.587 332.48C690.344 332.12 691.217 331.939 692.212 331.939C693.186 331.939 694.032 332.128 694.756 332.507C695.48 332.886 696.022 333.419 696.38 334.104C696.739 334.772 696.901 335.52 696.867 336.351H694.404C694.425 335.611 694.215 335.033 693.782 334.618C693.349 334.185 692.787 333.969 692.104 333.969C691.38 333.969 690.798 334.177 690.344 334.591C689.911 334.989 689.695 335.503 689.695 336.134C689.695 336.676 689.837 337.199 690.128 337.704C690.432 338.209 690.94 338.832 691.644 339.572L697.273 345.228L697.76 344.47L699.601 341.385H702.253L700.034 345.228C699.73 345.77 699.364 346.338 698.951 346.933L703.201 351.183H699.98ZM691.021 349.397C691.995 349.397 692.868 349.207 693.646 348.828C694.438 348.449 695.189 347.863 695.893 347.069L690.344 341.493C688.037 342.378 686.88 343.776 686.88 345.688C686.88 346.753 687.259 347.637 688.017 348.341C688.795 349.045 689.796 349.397 691.021 349.397ZM715.184 334.321V340.627H722.059V342.657H715.184V349.153H722.871V351.183H712.721V332.291H722.871V334.321H715.184ZM729.604 338.381V347.123C729.604 347.845 729.759 348.359 730.064 348.666C730.375 348.955 730.903 349.099 731.661 349.099H733.474V351.183H731.255C729.888 351.183 728.859 350.867 728.169 350.236C727.486 349.604 727.141 348.566 727.141 347.123V338.381H725.219V336.351H727.141V332.616H729.604V336.351H733.474V338.381H729.604ZM743.82 336.08C744.943 336.08 745.951 336.324 746.851 336.811C747.758 337.28 748.462 337.993 748.963 338.949C749.49 339.905 749.747 341.069 749.747 342.441V351.183H747.312V342.792C747.312 341.313 746.946 340.185 746.202 339.409C745.464 338.615 744.456 338.218 743.17 338.218C741.871 338.218 740.836 338.624 740.058 339.436C739.3 340.248 738.921 341.43 738.921 342.982V351.183H736.458V331.154H738.921V338.462C739.408 337.704 740.078 337.117 740.924 336.703C741.79 336.288 742.758 336.08 743.82 336.08ZM755.046 333.942C754.579 333.942 754.179 333.779 753.855 333.455C753.53 333.13 753.367 332.733 753.367 332.264C753.367 331.795 753.53 331.398 753.855 331.073C754.179 330.748 754.579 330.586 755.046 330.586C755.499 330.586 755.878 330.748 756.182 331.073C756.507 331.398 756.67 331.795 756.67 332.264C756.67 332.733 756.507 333.13 756.182 333.455C755.878 333.779 755.499 333.942 755.046 333.942ZM756.236 336.351V351.183H753.773V336.351H756.236ZM759.511 343.74C759.511 342.206 759.823 340.871 760.432 339.734C761.047 338.579 761.893 337.686 762.976 337.054C764.079 336.423 765.331 336.107 766.738 336.107C768.565 336.107 770.06 336.549 771.231 337.433C772.422 338.318 773.207 339.544 773.586 341.114H770.933C770.683 340.212 770.189 339.499 769.445 338.976C768.727 338.453 767.821 338.191 766.738 338.191C765.331 338.191 764.194 338.678 763.328 339.653C762.462 340.609 762.029 341.972 762.029 343.74C762.029 345.526 762.462 346.906 763.328 347.881C764.194 348.855 765.331 349.342 766.738 349.342C767.821 349.342 768.727 349.09 769.445 348.585C770.169 348.079 770.663 347.358 770.933 346.419H773.586C773.193 347.935 772.395 349.153 771.204 350.073C770.013 350.975 768.524 351.426 766.738 351.426C765.331 351.426 764.079 351.11 762.976 350.479C761.893 349.848 761.047 348.955 760.432 347.8C759.823 346.645 759.511 345.291 759.511 343.74ZM782.125 351.426C780.988 351.426 779.967 351.237 779.067 350.858C778.167 350.461 777.449 349.92 776.928 349.234C776.407 348.53 776.116 347.727 776.062 346.825H778.607C778.681 347.565 779.019 348.17 779.635 348.639C780.264 349.108 781.09 349.342 782.098 349.342C783.039 349.342 783.776 349.135 784.317 348.72C784.859 348.305 785.129 347.781 785.129 347.15C785.129 346.5 784.838 346.022 784.263 345.716C783.688 345.391 782.795 345.075 781.584 344.768C780.481 344.479 779.581 344.191 778.877 343.902C778.194 343.596 777.598 343.153 777.091 342.576C776.604 341.98 776.36 341.204 776.36 340.248C776.36 339.49 776.583 338.795 777.037 338.164C777.49 337.533 778.126 337.036 778.958 336.676C779.791 336.297 780.738 336.107 781.8 336.107C783.445 336.107 784.771 336.522 785.779 337.352C786.787 338.182 787.329 339.319 787.403 340.762H784.94C784.886 339.986 784.568 339.364 783.993 338.895C783.431 338.426 782.673 338.191 781.719 338.191C780.833 338.191 780.129 338.381 779.608 338.76C779.087 339.139 778.823 339.634 778.823 340.248C778.823 340.735 778.979 341.141 779.283 341.466C779.608 341.773 780.007 342.026 780.474 342.224C780.961 342.405 781.631 342.612 782.477 342.847C783.539 343.135 784.405 343.424 785.075 343.713C785.745 343.983 786.314 344.398 786.78 344.958C787.268 345.517 787.518 346.248 787.538 347.15C787.538 347.962 787.315 348.693 786.862 349.342C786.408 349.992 785.772 350.506 784.94 350.885C784.128 351.246 783.187 351.426 782.125 351.426Z" fill="#3A3A3A"/>
</g>
</g>
<defs>
<linearGradient id="paint0_linear_1_533" x1="601.541" y1="136.009" x2="322.474" y2="570.43" gradientUnits="userSpaceOnUse">
<stop stop-color="#4FBC01"/>
<stop offset="1" stop-color="#043447"/>
</linearGradient>
<linearGradient id="paint1_linear_1_533" x1="296.254" y1="122.155" x2="296.254" y2="261.705" gradientUnits="userSpaceOnUse">
<stop stop-color="#FE8D2B"/>
<stop offset="1" stop-color="#98541A"/>
</linearGradient>
<linearGradient id="paint2_linear_1_533" x1="621.219" y1="269.197" x2="446.08" y2="171.277" gradientUnits="userSpaceOnUse">
<stop stop-color="#034356"/>
<stop offset="1" stop-color="#0060D9"/>
</linearGradient>
<linearGradient id="paint3_linear_1_533" x1="635.786" y1="428.352" x2="510.512" y2="507.945" gradientUnits="userSpaceOnUse">
<stop stop-color="#BC30DB"/>
<stop offset="1" stop-color="#0D34AB"/>
</linearGradient>
<linearGradient id="paint4_linear_1_533" x1="205.545" y1="378.855" x2="375.816" y2="490.862" gradientUnits="userSpaceOnUse">
<stop stop-color="#4FBC01"/>
<stop offset="1" stop-color="#043447"/>
</linearGradient>
<clipPath id="clip0_1_533">
<rect width="794.01" height="654.69" fill="white" transform="scale(1.00047)"/>
</clipPath>
<clipPath id="clip1_1_533">
<rect width="794.01" height="654.69" fill="white" transform="scale(1.00047)"/>
</clipPath>
</defs>
</svg>
