<svg width="132" height="28" viewBox="0 0 132 28" fill="none" xmlns="http://www.w3.org/2000/svg">
<g clip-path="url(#clip0_1_6288)">
<path d="M15.3617 8.43C15.3617 12.9144 12.2315 16.422 7.83589 16.422C3.46249 16.422 0.354492 12.9144 0.354492 8.43C0.354492 3.9234 3.46249 0.438004 7.83589 0.438004C12.2315 0.438004 15.3617 3.9234 15.3617 8.43ZM12.9641 8.43C12.9641 5.1444 10.8329 2.658 7.83589 2.658C4.83889 2.658 2.75209 5.1222 2.75209 8.43C2.75209 11.7378 4.83889 14.202 7.83589 14.202C10.8329 14.202 12.9641 11.7156 12.9641 8.43ZM26.7668 4.5228C27.4106 4.5228 27.8768 5.0112 27.8768 5.655V11.4936C27.8768 14.5794 26.0786 16.3998 22.9484 16.3998C19.8182 16.3998 18.0644 14.5794 18.0644 11.4936V5.655C18.0644 5.0112 18.5306 4.5228 19.1744 4.5228C19.8182 4.5228 20.2844 5.0112 20.2844 5.655V11.4936C20.2844 13.425 21.2168 14.3574 22.9484 14.3574C24.7022 14.3574 25.6568 13.425 25.6568 11.4936V5.655C25.6568 5.0112 26.1008 4.5228 26.7668 4.5228ZM32.2958 16.2C31.6298 16.2 31.1858 15.7116 31.1858 15.0678V5.655C31.1858 5.0112 31.652 4.5228 32.2958 4.5228C32.9396 4.5228 33.4058 5.0112 33.4058 5.655V6.6096C34.0496 5.2332 35.426 4.2786 37.0688 4.2564C37.8236 4.2564 38.4896 4.7226 38.4896 5.3442C38.4896 6.1434 38.0012 6.4986 37.4906 6.4986C37.0466 6.4986 36.6914 6.21 36.1142 6.21C34.8266 6.21 33.4058 7.6086 33.4058 9.7398V15.0678C33.4058 15.7116 32.9396 16.2 32.2958 16.2ZM50.9724 16.422C49.2408 16.422 47.6868 15.5562 46.821 14.1576C46.6878 13.9578 46.6212 13.7358 46.6212 13.536C46.6212 12.9144 47.2206 12.4482 47.6868 12.4482C48.0864 12.4482 48.4416 12.7146 48.7302 13.0254C49.3074 13.7802 50.04 14.202 50.9724 14.202C52.5486 14.202 53.814 12.981 53.814 11.4492V1.7922C53.814 1.1484 54.369 0.660004 54.9906 0.660004C55.6788 0.660004 56.1228 1.1484 56.1228 1.7922V11.4492C56.1228 14.1798 53.9028 16.422 50.9724 16.422ZM70.8101 10.3614C70.8101 13.9134 68.2127 16.422 64.9049 16.422C61.5971 16.422 58.9998 13.9134 58.9998 10.3614C58.9998 6.7872 61.5971 4.2564 64.9049 4.2564C68.2127 4.2564 70.8101 6.7872 70.8101 10.3614ZM68.5901 10.3614C68.5901 7.9638 66.9695 6.2988 64.9049 6.2988C62.8625 6.2988 61.2197 7.9638 61.2197 10.3614C61.2197 12.7368 62.8625 14.3796 64.9049 14.3796C66.9695 14.3796 68.5901 12.7368 68.5901 10.3614ZM82.1411 4.5228C82.7849 4.5228 83.2511 5.0112 83.2511 5.655V11.4936C83.2511 14.5794 81.4529 16.3998 78.3227 16.3998C75.1925 16.3998 73.4387 14.5794 73.4387 11.4936V5.655C73.4387 5.0112 73.9049 4.5228 74.5487 4.5228C75.1925 4.5228 75.6587 5.0112 75.6587 5.655V11.4936C75.6587 13.425 76.5911 14.3574 78.3227 14.3574C80.0765 14.3574 81.0311 13.425 81.0311 11.4936V5.655C81.0311 5.0112 81.4751 4.5228 82.1411 4.5228ZM87.6701 16.2C87.0041 16.2 86.5601 15.7116 86.5601 15.0678V5.655C86.5601 5.0112 87.0263 4.5228 87.6701 4.5228C88.3139 4.5228 88.7801 5.0112 88.7801 5.655V6.6096C89.4239 5.2332 90.8003 4.2786 92.4431 4.2564C93.1979 4.2564 93.8639 4.7226 93.8639 5.3442C93.8639 6.1434 93.3755 6.4986 92.8649 6.4986C92.4209 6.4986 92.0657 6.21 91.4885 6.21C90.2009 6.21 88.7801 7.6086 88.7801 9.7398V15.0678C88.7801 15.7116 88.3139 16.2 87.6701 16.2ZM102.077 4.2564C105.207 4.2564 106.073 6.432 106.073 9.1182V15.0678C106.073 15.7116 105.585 16.2 104.963 16.2C104.297 16.2 103.853 15.7116 103.853 15.0678V9.1404C103.853 7.5864 103.254 6.2988 101.345 6.2988C99.5243 6.2988 98.2811 7.5864 98.2811 9.1404V15.0678C98.2811 15.7116 97.8149 16.2 97.1711 16.2C96.5051 16.2 96.0611 15.7116 96.0611 15.0678V5.655C96.0611 5.0112 96.5273 4.5228 97.1711 4.5228C97.8149 4.5228 98.2811 5.0112 98.2811 5.655V6.321C98.9915 5.2554 100.434 4.2564 102.077 4.2564ZM114.705 16.422C111.02 16.422 108.667 13.9134 108.667 10.4724C108.667 6.5652 111.375 4.2564 114.217 4.2564C117.081 4.2564 119.656 6.6762 119.678 9.9396C119.634 10.539 119.145 10.9608 118.546 10.9608H110.843C111.087 13.092 112.663 14.3796 114.617 14.3796C116.193 14.3796 116.925 13.7802 117.458 13.3362C117.68 13.203 117.902 13.1364 118.124 13.1364C118.657 13.1364 119.057 13.5804 119.057 14.0688C119.057 14.3796 118.901 14.6682 118.568 14.9568C117.769 15.7338 116.237 16.422 114.705 16.422ZM114.217 6.321C112.707 6.321 111.309 7.0536 110.909 9.0738H117.325V8.9184C117.17 7.3866 115.704 6.321 114.217 6.321ZM130.876 4.434C131.542 4.434 131.985 4.9224 131.985 5.56621V15.1122C131.985 19.0194 129.543 20.64 126.413 20.64C125.348 20.64 124.193 20.418 123.505 20.085C122.772 19.7742 122.506 19.2636 122.684 18.7086C122.906 17.9982 123.461 17.754 123.993 17.9538C124.482 18.1536 125.325 18.5976 126.413 18.5976C128.567 18.5976 129.788 17.5764 129.788 15.1788V14.7792C129.011 15.8448 127.723 16.422 126.103 16.422C123.638 16.422 122.195 14.646 122.195 12.1596V5.56621C122.195 4.9224 122.639 4.434 123.305 4.434C123.949 4.434 124.415 4.9224 124.415 5.56621V11.5602C124.415 13.536 125.281 14.3796 126.968 14.3796C128.611 14.3796 129.766 13.2696 129.766 11.5602V5.56621C129.766 4.9224 130.232 4.434 130.876 4.434Z" fill="url(#paint0_linear_1_6288)"/>
</g>
<defs>
<linearGradient id="paint0_linear_1_6288" x1="8.71801" y1="4.76148" x2="220.68" y2="4.76148" gradientUnits="userSpaceOnUse">
<stop stop-color="#08E100"/>
<stop offset="0.81" stop-color="#0C2340"/>
</linearGradient>
<clipPath id="clip0_1_6288">
<rect width="132" height="21" fill="white"/>
</clipPath>
</defs>
</svg>
