<svg width="90" height="90" viewBox="0 0 90 90" fill="none" xmlns="http://www.w3.org/2000/svg">
<g filter="url(#filter0_d_1_1443)">
<rect x="11" y="11" width="68" height="68" rx="34" fill="#25D366" shape-rendering="crispEdges"/>
<g clip-path="url(#clip0_1_1443)">
<path d="M59.1087 30.8128C55.365 27.0666 50.387 25.0023 45.0833 25C34.1542 25 25.2601 33.8912 25.2558 44.8199C25.2545 48.3132 26.1673 51.7233 27.9022 54.7291L25.0893 65L35.6001 62.2439C38.496 63.8233 41.7567 64.6555 45.0748 64.6568H45.0832H45.0833C56.0107 64.6568 64.9061 55.764 64.9107 44.8359C64.9125 39.5394 62.8519 34.5594 59.1087 30.8128ZM45.0833 61.3092H45.0769C42.1193 61.3076 39.2189 60.5136 36.6891 59.0124L36.0871 58.6555L29.8498 60.2909L31.515 54.2117L31.1228 53.5885C29.473 50.9653 28.6021 47.9339 28.6033 44.8211C28.6069 35.7376 35.9994 28.3478 45.0896 28.3478C49.4915 28.3496 53.6288 30.0654 56.7405 33.1792C59.8519 36.293 61.5642 40.4323 61.5629 44.8345C61.559 53.9183 54.1663 61.3092 45.0833 61.3092Z" fill="#E0E0E0"/>
<path d="M25.9995 63.8604L28.6839 54.0587C27.0277 51.1901 26.1568 47.9356 26.1579 44.6024C26.1622 34.1732 34.6501 25.6884 45.0791 25.6884C50.1408 25.6907 54.8914 27.6605 58.4633 31.2358C62.036 34.811 64.0023 39.5632 64.0002 44.6172C63.9959 55.0467 55.5075 63.5323 45.0798 63.5323C45.0791 63.5323 45.0803 63.5323 45.0798 63.5323H45.0714C41.9048 63.5313 38.7934 62.7364 36.0299 61.2303L25.9995 63.8604Z" fill="url(#paint0_linear_1_1443)"/>
<path fill-rule="evenodd" clip-rule="evenodd" d="M40.1837 36.4054C39.8169 35.5898 39.4307 35.5735 39.0817 35.5592C38.7963 35.547 38.4695 35.5477 38.1432 35.5477C37.8167 35.5477 37.2861 35.6704 36.8374 36.1605C36.3884 36.6505 35.1231 37.8352 35.1231 40.2446C35.1231 42.6543 36.8782 44.9826 37.1228 45.3096C37.3677 45.6361 40.5108 50.7386 45.4885 52.7016C49.6254 54.3329 50.4673 54.0084 51.3652 53.9268C52.2632 53.8452 54.2626 52.7424 54.6708 51.5988C55.079 50.4554 55.079 49.4753 54.9565 49.2705C54.8341 49.0664 54.5075 48.9439 54.0178 48.699C53.528 48.4542 51.1204 47.2692 50.6714 47.106C50.2224 46.9427 49.8959 46.8611 49.5694 47.3514C49.2428 47.8412 48.3048 48.9439 48.0191 49.2705C47.7334 49.5977 47.4477 49.6386 46.9579 49.3937C46.4681 49.148 44.8908 48.6314 43.0197 46.9631C41.5638 45.6651 40.5809 44.0621 40.2952 43.5718C40.0095 43.082 40.2646 42.8167 40.5103 42.5726C40.7302 42.3532 41.0001 42.0009 41.245 41.7149C41.4893 41.4289 41.571 41.2249 41.7342 40.8983C41.8975 40.5713 41.8159 40.2853 41.6934 40.0404C41.571 39.7956 40.6192 37.3737 40.1837 36.4054Z" fill="white"/>
<path d="M58.9468 30.7498C55.246 27.0466 50.3252 25.006 45.0824 25.0037C34.2787 25.0037 25.4868 33.7929 25.4824 44.5961C25.4811 48.0494 26.3834 51.4202 28.0984 54.3916L25.3179 64.5445L35.708 61.8201C38.5708 63.3812 41.7939 64.204 45.074 64.2052H45.0823H45.0824C55.8843 64.2052 64.6776 55.4145 64.6822 44.6119C64.684 39.3762 62.647 34.4534 58.9468 30.7498ZM45.0824 60.8961H45.076C42.1524 60.8946 39.2853 60.1096 36.7846 58.6257L36.1894 58.2729L30.0237 59.8895L31.6698 53.8801L31.2821 53.2641C29.6512 50.671 28.7903 47.6743 28.7916 44.5974C28.7951 35.6181 36.1027 28.3131 45.0886 28.3131C49.44 28.3149 53.5298 30.0111 56.6058 33.0891C59.6815 36.1671 61.3741 40.2589 61.3728 44.6106C61.3689 53.5901 54.0611 60.8961 45.0824 60.8961Z" fill="white"/>
</g>
</g>
<defs>
<filter id="filter0_d_1_1443" x="0" y="0" width="90" height="90" filterUnits="userSpaceOnUse" color-interpolation-filters="sRGB">
<feFlood flood-opacity="0" result="BackgroundImageFix"/>
<feColorMatrix in="SourceAlpha" type="matrix" values="0 0 0 0 0 0 0 0 0 0 0 0 0 0 0 0 0 0 127 0" result="hardAlpha"/>
<feOffset/>
<feGaussianBlur stdDeviation="5.5"/>
<feComposite in2="hardAlpha" operator="out"/>
<feColorMatrix type="matrix" values="0 0 0 0 0 0 0 0 0 0 0 0 0 0 0 0 0 0 0.5 0"/>
<feBlend mode="normal" in2="BackgroundImageFix" result="effect1_dropShadow_1_1443"/>
<feBlend mode="normal" in="SourceGraphic" in2="effect1_dropShadow_1_1443" result="shape"/>
</filter>
<linearGradient id="paint0_linear_1_1443" x1="44.9999" y1="63.8604" x2="44.9999" y2="25.6884" gradientUnits="userSpaceOnUse">
<stop stop-color="#25D366"/>
<stop offset="1" stop-color="#25D366"/>
</linearGradient>
<clipPath id="clip0_1_1443">
<rect width="40" height="40" fill="white" transform="translate(25 25)"/>
</clipPath>
</defs>
</svg>
