<svg width="30" height="31" viewBox="0 0 30 31" fill="none" xmlns="http://www.w3.org/2000/svg">
<path d="M20.88 16.19C21.22 15.85 21.39 15.39 21.39 14.81C21.39 14.55 21.35 14.31 21.27 14.09C21.19 13.87 21.06 13.7 20.88 13.58L12 4.58001C11.8 4.38001 11.595 4.22501 11.385 4.11501C11.175 4.00501 10.92 3.95001 10.62 3.95001C10.12 3.95001 9.71001 4.12001 9.39001 4.46001C9.19001 4.64001 9.03501 4.85001 8.92501 5.09001C8.81501 5.33001 8.76001 5.57001 8.76001 5.81001C8.76001 6.41001 8.92001 6.87001 9.24001 7.19001L16.89 14.96L9.12001 23.33C8.80001 23.65 8.64001 24.11 8.64001 24.71C8.64001 25.19 8.84001 25.65 9.24001 26.09C9.64001 26.33 10.1 26.45 10.62 26.45C10.88 26.45 11.13 26.395 11.37 26.285C11.61 26.175 11.82 26.02 12 25.82L20.88 16.19Z" fill="#11593F"/>
</svg>
