<svg width="30" height="31" viewBox="0 0 30 31" fill="none" xmlns="http://www.w3.org/2000/svg">
<path d="M19.38 3.95001C19.14 3.95001 18.905 4.00001 18.675 4.10001C18.445 4.20001 18.26 4.32001 18.12 4.46001L9.24001 13.46C8.92001 13.78 8.76001 14.235 8.76001 14.825C8.76001 15.415 8.92001 15.87 9.24001 16.19L18.12 25.82C18.34 26.04 18.545 26.2 18.735 26.3C18.925 26.4 19.14 26.45 19.38 26.45C19.96 26.45 20.42 26.28 20.76 25.94C20.94 25.76 21.09 25.545 21.21 25.295C21.33 25.045 21.39 24.8 21.39 24.56C21.39 23.98 21.18 23.53 20.76 23.21L13.14 14.81L20.76 6.95001C21.08 6.63001 21.24 6.25001 21.24 5.81001C21.24 5.23001 21.08 4.78001 20.76 4.46001C20.5 4.26001 20.27 4.12501 20.07 4.05501C19.87 3.98501 19.64 3.95001 19.38 3.95001Z" fill="#11593F"/>
</svg>
