<svg width="14" height="41" viewBox="0 0 14 41" fill="none" xmlns="http://www.w3.org/2000/svg">
<g clip-path="url(#clip0_1_356)">
<g clip-path="url(#clip1_1_356)">
<path d="M13.8086 25.4051L11.0824 22.679C10.9594 22.5559 10.7926 22.4875 10.6176 22.4875H10.1719C10.9266 21.5223 11.375 20.3083 11.375 18.9875C11.375 15.8458 8.8293 13.3 5.6875 13.3C2.5457 13.3 0 15.8458 0 18.9875C0 22.1293 2.5457 24.675 5.6875 24.675C7.0082 24.675 8.22227 24.2266 9.1875 23.4719V23.9176C9.1875 24.0926 9.25586 24.2594 9.37891 24.3825L12.1051 27.1086C12.3621 27.3657 12.7777 27.3657 13.032 27.1086L13.8059 26.3348C14.0629 26.0778 14.0629 25.6622 13.8086 25.4051ZM5.6875 22.4875C3.7543 22.4875 2.1875 20.9235 2.1875 18.9875C2.1875 17.0543 3.75156 15.4875 5.6875 15.4875C7.6207 15.4875 9.1875 17.0516 9.1875 18.9875C9.1875 20.9208 7.62344 22.4875 5.6875 22.4875Z" fill="#AAAAAA"/>
</g>
</g>
<defs>
<clipPath id="clip0_1_356">
<rect width="14" height="14" fill="white" transform="translate(0 13.3)"/>
</clipPath>
<clipPath id="clip1_1_356">
<rect width="14" height="14" fill="white" transform="translate(0 13.3)"/>
</clipPath>
</defs>
</svg>
